<?xml version="1.0" encoding="UTF-8"?>
<svg id="Layer_2" data-name="Layer 2" xmlns="http://www.w3.org/2000/svg" width="100%" height="100%" viewBox="0 0 239.1 191.47">
  <g id="Layer_9" data-name="Layer 9">
    <rect width="239.1" height="152.76" rx="3.3" ry="3.3" fill="#403d56" stroke-width="0"/>
    <rect x="97.5" y="147.83" width="44.1" height="30.8" fill="#403d56" stroke-width="0"/>
    <rect x="75.45" y="178.63" width="86.65" height="12.85" fill="#403d56" stroke-width="0"/>
    <rect x="6.64" y="6.84" width="225.81" height="139.07" fill="#2b2b2b" stroke-width="0"/>
    <rect x="14.49" y="15.12" width="59.23" height="6.28" rx="1.38" ry="1.38" fill="#6094c6" stroke-width="0"/>
    <rect x="14.49" y="99.71" width="59.23" height="6.28" rx="1.38" ry="1.38" fill="#53585e" stroke-width="0"/>
    <rect x="77.68" y="15.12" width="125.17" height="6.28" rx="1.38" ry="1.38" fill="#53585e" stroke-width="0"/>
    <rect x="77.68" y="99.71" width="125.17" height="6.28" rx="1.38" ry="1.38" fill="#53585e" stroke-width="0"/>
    <rect x="40.36" y="24.75" width="97.43" height="6.28" rx="1.38" ry="1.38" fill="#53585e" stroke-width="0"/>
    <rect x="141.59" y="24.75" width="81.47" height="6.28" rx="1.38" ry="1.38" fill="#53585e" stroke-width="0"/>
    <rect x="28.86" y="35.71" width="46.51" height="6.28" rx="1.38" ry="1.38" fill="#945948" stroke-width="0"/>
    <rect x="79.72" y="35.71" width="46.51" height="6.28" rx="1.38" ry="1.38" fill="#53585e" stroke-width="0"/>
    <rect x="40.36" y="77.8" width="97.43" height="6.28" rx="1.38" ry="1.38" fill="#53585e" stroke-width="0"/>
    <rect x="28.86" y="88.76" width="46.51" height="6.28" rx="1.38" ry="1.38" fill="#945948" stroke-width="0"/>
    <rect x="79.72" y="88.76" width="46.51" height="6.28" rx="1.38" ry="1.38" fill="#53585e" stroke-width="0"/>
    <rect x="129.04" y="88.76" width="94.02" height="6.28" rx="1.38" ry="1.38" fill="#53585e" stroke-width="0"/>
    <rect x="50.46" y="46.05" width="46.51" height="6.28" rx="1.38" ry="1.38" fill="#53585e" stroke-width="0"/>
    <rect x="100.5" y="46.05" width="114.47" height="6.28" rx="1.38" ry="1.38" fill="#53585e" stroke-width="0"/>
    <rect x="50.46" y="56.4" width="46.51" height="6.28" rx="1.38" ry="1.38" fill="#53585e" stroke-width="0"/>
    <rect x="100.5" y="56.4" width="114.47" height="6.28" rx="1.38" ry="1.38" fill="#53585e" stroke-width="0"/>
    <rect x="50.46" y="66.75" width="46.51" height="6.28" rx="1.38" ry="1.38" fill="#53585e" stroke-width="0"/>
    <rect x="50.46" y="110.66" width="46.51" height="6.28" rx="1.38" ry="1.38" fill="#6094c6" stroke-width="0"/>
    <rect x="50.46" y="121.01" width="46.51" height="6.28" rx="1.38" ry="1.38" fill="#53585e" stroke-width="0"/>
    <rect x="50.46" y="131.36" width="46.51" height="6.28" rx="1.38" ry="1.38" fill="#6094c6" stroke-width="0"/>
    <rect x="100.5" y="110.66" width="84.96" height="6.28" rx="1.38" ry="1.38" fill="#53585e" stroke-width="0"/>
    <rect x="100.5" y="121.01" width="59.64" height="6.28" rx="1.38" ry="1.38" fill="#53585e" stroke-width="0"/>
    <rect x="100.5" y="131.36" width="93.99" height="6.28" rx="1.38" ry="1.38" fill="#53585e" stroke-width="0"/>
    <rect x="100.5" y="66.75" width="114.47" height="6.28" rx="1.38" ry="1.38" fill="#53585e" stroke-width="0"/>
  </g>
</svg>