<?xml version="1.0" encoding="UTF-8"?>
<svg id="Layer_2" data-name="Layer 2" xmlns="http://www.w3.org/2000/svg" width="auto" height="auto" xmlns:xlink="http://www.w3.org/1999/xlink" viewBox="0 0 290.4 122.51">
  <defs>
    <clipPath id="feels-same-clippath">
      <path d="m76.7,2.32C44.73-6.79,11.43,11.74,2.32,43.71c-9.11,31.97,9.42,65.27,41.39,74.38,31.97,9.11,65.27-9.42,74.38-41.39,9.11-31.97-9.42-65.27-41.39-74.38Zm-22.29,78.22c-11.23-3.2-17.74-14.9-14.54-26.13,3.2-11.23,14.9-17.74,26.13-14.54s17.74,14.9,14.54,26.13-14.9,17.74-26.13,14.54Z" fill="none" stroke-width="0"/>
    </clipPath>
    <clipPath id="feels-same-clip-1">
      <path d="m227.46,26.16c-15.05-4.29-30.73,4.44-35.02,19.49-4.29,15.05,4.44,30.73,19.49,35.02,15.05,4.29,30.73-4.44,35.02-19.49,4.29-15.05-4.44-30.73-19.49-35.02Zm-10.49,36.83c-5.29-1.51-8.35-7.01-6.85-12.3s7.01-8.35,12.3-6.85,8.35,7.01,6.85,12.3-7.01,8.35-12.3,6.85Z" fill="none" stroke-width="0"/>
    </clipPath>
  </defs>
  <g id="Layer_2-2" data-name="Layer 2">
    <rect x="145.84" y="6.74" width="144.56" height="92.36" rx="3.3" ry="3.3" fill="#403d56" stroke-width="0"/>
    <rect x="204.79" y="96.12" width="26.66" height="18.62" fill="#403d56" stroke-width="0"/>
    <rect x="191.46" y="114.74" width="52.39" height="7.77" fill="#403d56" stroke-width="0"/>
    <rect x="149.85" y="10.88" width="136.53" height="84.08" fill="#f78f1e" stroke-width="0"/>
    <path d="m76.7,2.32C44.73-6.79,11.43,11.74,2.32,43.71c-9.11,31.97,9.42,65.27,41.39,74.38,31.97,9.11,65.27-9.42,74.38-41.39,9.11-31.97-9.42-65.27-41.39-74.38Zm-22.29,78.22c-11.23-3.2-17.74-14.9-14.54-26.13s14.9-17.74,26.13-14.54c11.23,3.2,17.74,14.9,14.54,26.13s-14.9,17.74-26.13,14.54Z" fill="#cccccb" stroke-width="0"/>
    <g clip-path="url(#feels-same-clippath)">
      <g>
        <polygon points="169.88 48.65 76.14 55.29 75.75 52.08 166.99 25.21 169.88 48.65" fill="#e8eda3" stroke-width="0"/>
        <polygon points="166.99 25.21 75.83 52.72 75.43 49.51 164.11 1.76 166.99 25.21" fill="#f8abab" stroke-width="0"/>
        <polygon points="169.88 48.65 76.12 55.13 76.52 58.34 172.76 72.1 169.88 48.65" fill="#b5e2eb" stroke-width="0"/>
        <polygon points="-70.67 31.06 43.14 59.18 43.53 62.39 -67.79 54.51 -70.67 31.06" fill="#e8eda3" stroke-width="0"/>
        <polygon points="-67.79 54.51 43.46 61.75 43.85 64.96 -64.91 77.96 -67.79 54.51" fill="#f8abab" stroke-width="0"/>
        <polygon points="-70.67 31.06 43.16 59.34 42.76 56.13 -73.56 7.62 -70.67 31.06" fill="#b5e2eb" stroke-width="0"/>
      </g>
    </g>
    <path d="m227.46,26.16c-15.05-4.29-30.73,4.44-35.02,19.49s4.44,30.73,19.49,35.02,30.73-4.44,35.02-19.49c4.29-15.05-4.44-30.73-19.49-35.02Zm-10.49,36.83c-5.29-1.51-8.35-7.01-6.85-12.3s7.01-8.35,12.3-6.85,8.35,7.01,6.85,12.3-7.01,8.35-12.3,6.85Z" fill="#cccccb" stroke-width="0"/>
    <g clip-path="url(#feels-same-clip-1)">
      <g>
        <polygon points="271.34 47.97 227.2 51.1 227.02 49.59 269.98 36.94 271.34 47.97" fill="#e8eda3" stroke-width="0"/>
        <polygon points="269.98 36.94 227.05 49.89 226.87 48.38 268.62 25.9 269.98 36.94" fill="#f8abab" stroke-width="0"/>
        <polygon points="271.34 47.97 227.19 51.03 227.38 52.54 272.69 59.01 271.34 47.97" fill="#b5e2eb" stroke-width="0"/>
        <polygon points="167.53 56.06 211.66 52.93 211.85 54.44 168.89 67.1 167.53 56.06" fill="#e8eda3" stroke-width="0"/>
        <polygon points="168.89 67.1 211.81 54.14 212 55.65 170.25 78.14 168.89 67.1" fill="#f8abab" stroke-width="0"/>
        <polygon points="167.53 56.06 211.67 53.01 211.49 51.5 166.17 45.02 167.53 56.06" fill="#b5e2eb" stroke-width="0"/>
      </g>
    </g>
    <g opacity=".65">
      <path d="m211.95,80.6c-15.05-4.29-23.78-19.97-19.49-35.02,3.64-12.78,15.49-20.99,28.19-20.56L71.71.82l.02.25c1.67.33,3.33.71,4.99,1.18,31.97,9.11,50.5,42.41,41.39,74.38-5.69,19.98-20.84,34.71-39.2,40.73l145.51-36.06h0c-4.03.68-8.28.5-12.47-.7Z" fill="#fcf7bf" stroke-width="0"/>
    </g>
  </g>
</svg>