<?xml version="1.0" encoding="UTF-8"?>
<svg id="life-layer-2" data-name="life Layer 2" xmlns="http://www.w3.org/2000/svg" width="auto" height="auto" xmlns:xlink="http://www.w3.org/1999/xlink" viewBox="0 0 252.5 182.88">
  <defs>
    <linearGradient id="life-gradient-1" x1="166.57" y1="91.69" x2="151.94" y2="161.25" gradientUnits="userSpaceOnUse">
      <stop offset="0" stop-color="#9fcc3b"/>
      <stop offset=".17" stop-color="#9bc93a"/>
      <stop offset=".33" stop-color="#8fbf39"/>
      <stop offset=".49" stop-color="#7bb037"/>
      <stop offset=".65" stop-color="#5f9b34"/>
      <stop offset=".81" stop-color="#3b8031"/>
      <stop offset=".96" stop-color="#105f2d"/>
      <stop offset="1" stop-color="#05572c"/>
    </linearGradient>
    <linearGradient id="life-gradient-2" x1="171.79" y1="36.26" x2="158.72" y2="98.42" xlink:href="#life-gradient-1"/>
    <linearGradient id="life-gradient-3" x1="206.87" y1="91.69" x2="192.24" y2="161.25" gradientTransform="translate(291.73) rotate(-180) scale(1 -1)" xlink:href="#life-gradient-1"/>
    <linearGradient id="life-gradient-4" x1="212.09" y1="36.26" x2="199.02" y2="98.42" gradientTransform="translate(291.73) rotate(-180) scale(1 -1)" xlink:href="#life-gradient-1"/>
  </defs>
  <g id="life-layer-4" data-name="life Layer 4">
    <path d="m194.71,36.64c-17.05-13.53-38.01-9.98-41.03-9.41-14.73,2.74-24.19,11.08-27.86,14.68-3.66-3.61-13.13-11.94-27.86-14.68-3.03-.56-23.98-4.12-41.03,9.41-23.5,18.65-17.67,52.37-17.32,54.21,4.06,21.42,19.32,34.13,39.91,51.2,17.88,14.83,35.01,23.92,47.06,29.36,11.5-5.52,28.09-14.71,45.55-29.36,20.98-17.61,35.92-30.14,39.91-51.2.35-1.85,6.18-35.56-17.32-54.21Z" fill="#c99160" stroke-width="0"/>
    <path d="m190.92,40.07c-16.11-12.79-35.91-9.43-38.77-8.89-13.92,2.59-22.86,10.47-26.32,13.87-3.46-3.41-12.41-11.28-26.32-13.87-2.86-.53-22.66-3.9-38.77,8.89-22.2,17.62-16.69,49.48-16.36,51.22,3.83,20.24,18.26,32.25,37.71,48.38,16.89,14.01,33.08,22.61,44.46,27.75,10.87-5.22,26.54-13.9,43.04-27.75,19.83-16.64,33.94-28.48,37.71-48.38.33-1.74,5.84-33.6-16.36-51.22Z" fill="#e3b97f" stroke-width="0"/>
    <path d="m131.39,156.74c-1.07-.71-1.72-2.16-2.05-3.48-.64-2.59-.82-5.28-.96-7.95-.34-6.43-.46-12.88-.38-19.32s-.15-12.91,1.41-19c.51-1.97,1.23-3.93,2.5-5.52,3.16-3.96,9.17-3.64,13.74-3.83,14.23-.58,28.41-2.83,42.66-1.21,1.92.22,3.87.52,5.61,1.35s3.28,2.29,3.78,4.16c1.28,4.75-3.7,9.09-6.72,11.97-3.76,3.59-7.88,6.79-11.93,10.05-7.28,5.86-14.67,11.56-22.16,17.14-7.04,5.23-14.13,11.27-21.92,15.36-.74.39-1.53.76-2.36.71-.47-.03-.88-.18-1.25-.43Z" fill="url(#life-gradient-1)" stroke-width="0"/>
    <path d="m128.46,81.07c-.1,2.37-.08,4.77.67,7.05.44,1.34,1.14,2.61,2.2,3.56,1.36,1.22,3.21,1.8,5.05,1.95,4.42.36,9.24-.51,13.66-.84,4.68-.36,9.36-.76,14.03-1.23,8.14-.84,16.31-1.62,24.5-1.63,6.1,0,11.12-3.49,12.2-9.65,1.94-11.09-2.36-22.91-9.56-31.42-5.59-6.61-13.16-11.45-21.8-13.09-14.36-2.72-30.1,3.47-37.66,16.02-2.36,3.92-3.63,8.44-3.76,12.99-.14,4.87.78,9.69.55,14.59-.03.57-.06,1.13-.08,1.7Z" fill="url(#life-gradient-2)" stroke-width="0"/>
    <path d="m181.6,47.92c-.08-.15-.17-.3-.26-.44-4.39-7.22-15.11-9.77-23.74-7.31-4.06,1.16-7.69,3.4-10.28,6.34-.92,1.05-1.02,2.65,1,2.1,5.71-1.54,11-2.81,17.01-2.02,5.38.71,10.56,2.51,15,5.24.6.37,1.52.73,1.97.22.14-.16.18-.38.2-.58.12-1.22-.3-2.44-.91-3.55Z" fill="#dce791" stroke-width="0"/>
    <path d="m148.98,101.41c2.76-.96,6.06-.62,8.85-.58,3.33.04,6.64-.25,9.95-.57,3.08-.29,6.16-.91,9.16.1,1.27.43,3.69,1.16,3.68,2.84-.03,3.54-9.43,3.52-11.73,3.68-3.36.24-6.72.49-10.08.73s-6.53.73-9.75.34c-1.55-.19-3.37-.8-3.72-2.33-.27-1.18.52-2.36,1.48-3.09.66-.5,1.39-.87,2.16-1.13Z" fill="#dce791" stroke-width="0"/>
    <path d="m120.04,156.74c1.07-.71,1.72-2.16,2.05-3.48.64-2.59.82-5.28.96-7.95.34-6.43.46-12.88.38-19.32-.08-6.28.15-12.91-1.41-19-.51-1.97-1.23-3.93-2.5-5.52-3.16-3.96-9.17-3.64-13.74-3.83-14.23-.58-28.41-2.83-42.66-1.21-1.92.22-3.87.52-5.61,1.35s-3.28,2.29-3.78,4.16c-1.28,4.75,3.7,9.09,6.72,11.97,3.76,3.59,7.88,6.79,11.93,10.05,7.28,5.86,14.67,11.56,22.16,17.14,7.04,5.23,14.13,11.27,21.92,15.36.74.39,1.53.76,2.36.71.47-.03.88-.18,1.25-.43Z" fill="url(#life-gradient-3)" stroke-width="0"/>
    <path d="m122.97,81.07c.1,2.37.08,4.77-.67,7.05-.44,1.34-1.14,2.61-2.2,3.56-1.36,1.22-3.21,1.8-5.05,1.95-4.42.36-9.24-.51-13.66-.84-4.68-.36-9.36-.76-14.03-1.23-8.14-.84-16.31-1.62-24.5-1.63-6.1,0-11.12-3.49-12.2-9.65-1.94-11.09,2.36-22.91,9.56-31.42,5.59-6.61,13.16-11.45,21.8-13.09,14.36-2.72,30.1,3.47,37.66,16.02,2.36,3.92,3.63,8.44,3.76,12.99.14,4.87-.78,9.69-.55,14.59.03.57.06,1.13.08,1.7Z" fill="url(#life-gradient-4)" stroke-width="0"/>
    <path d="m69.84,47.92c.08-.15.17-.3.26-.44,4.39-7.22,15.11-9.77,23.74-7.31,4.06,1.16,7.69,3.4,10.28,6.34.92,1.05,1.02,2.65-1,2.1-5.71-1.54-11-2.81-17.01-2.02-5.38.71-10.56,2.51-15,5.24-.6.37-1.52.73-1.97.22-.14-.16-.18-.38-.2-.58-.12-1.22.3-2.44.91-3.55Z" fill="#dce791" stroke-width="0"/>
    <path d="m100.8,101.41c-2.76-.96-6.06-.62-8.85-.58-3.33.04-6.64-.25-9.95-.57-3.08-.29-6.16-.91-9.16.1-1.27.43-3.69,1.16-3.68,2.84.03,3.54,9.43,3.52,11.73,3.68,3.36.24,6.72.49,10.08.73s6.53.73,9.75.34c1.55-.19,3.37-.8,3.72-2.33.27-1.18-.52-2.36-1.48-3.09-.66-.5-1.39-.87-2.16-1.13Z" fill="#dce791" stroke-width="0"/>
    <path d="m125.53,115.58c-1.83-.09-2.05.05-2.94-.14-.32-.07-1.45-.31-2.11-.81-1.58-1.19-1.34-4.39-1.2-7.31,0,0,.13-2.91.05-12.04-.06-6.37-.09-9.55-.17-10.41-.26-2.73-.69-5.3.63-6.51.53-.48,1.24-.57,2.67-.75,1.6-.2,2.86-.01,4.35.22,1.56.24,2.35.36,2.71.62,1.76,1.24,1.52,4.85,1.43,7.63-.16,5.15.49,10.33.66,15.49.24,7.34.66,12.77-1.25,13.65-.33.15-1.31.43-2.44.5-.78.04-.87-.06-2.37-.13Z" fill="#8e6238" stroke-width="0"/>
    <path d="m106.87,96.04c.09-1.83-.05-2.05.14-2.94.07-.32.31-1.45.81-2.11,1.19-1.58,4.39-1.34,7.31-1.2,0,0,2.91.13,12.04.05,6.37-.06,9.55-.09,10.41-.17,2.73-.26,5.3-.69,6.51.63.48.53.57,1.24.75,2.67.2,1.6.01,2.86-.22,4.35-.24,1.56-.36,2.35-.62,2.71-1.24,1.76-4.85,1.52-7.63,1.43-5.15-.16-10.33.49-15.49.66-7.34.24-12.77.66-13.65-1.25-.15-.33-.43-1.31-.5-2.44-.04-.78.06-.87.13-2.37Z" fill="#8e6238" stroke-width="0"/>
    <path d="m136.42,164.14c-.58-.68-1.28-1.5-1.91-2.81-.55-1.13-.86-1.78-.87-2.51-.04-2.22,2.73-3.64,4.24-4.81,2.17-1.69,4.34-3.38,6.51-5.07.32-.25,1.89-1.15,5-3,1.72-1.02,2.09-1.23,2.69-1.18,1.38.13,2.36,1.69,4.31,4.8,1.02,1.63,1.13,2.07,1.1,2.53-.08,1.44-1.45,2.37-2.95,3.45-2.71,1.94-5.27,4.07-7.97,6.02-1.84,1.34-4.1,2.18-5.64,3.85-.1.11-.47.53-1.07.66-.19.04-.55.09-1.07-.06-.44-.13-1.16-.45-2.38-1.88Z" fill="#8e6238" stroke-width="0"/>
    <path d="m115.87,164.14c.58-.68,1.28-1.5,1.91-2.81.55-1.13.86-1.78.87-2.51.04-2.22-2.73-3.64-4.24-4.81-2.17-1.69-4.34-3.38-6.51-5.07-.32-.25-1.89-1.15-5-3-1.72-1.02-2.09-1.23-2.69-1.18-1.38.13-2.36,1.69-4.31,4.8-1.02,1.63-1.13,2.07-1.1,2.53.08,1.44,1.45,2.37,2.95,3.45,2.71,1.94,5.27,4.07,7.97,6.02,1.84,1.34,4.1,2.18,5.64,3.85.1.11.47.53,1.07.66.19.04.55.09,1.07-.06.44-.13,1.16-.45,2.38-1.88Z" fill="#8e6238" stroke-width="0"/>
    <path d="m42.25,66.88c.9.47,1.99,1.03,3.59,1.39,1.4.32,2.19.49,3,.31,2.47-.53,3.33-3.97,4.25-5.95,1.32-2.84,2.64-5.69,3.96-8.53.19-.41.8-2.39,2.06-6.32.7-2.17.84-2.64.62-3.29-.49-1.5-2.47-2.18-6.42-3.54-2.07-.71-2.59-.72-3.08-.57-1.57.46-2.26,2.22-3.07,4.16-1.46,3.5-3.17,6.9-4.65,10.39-1.01,2.39-1.38,5.11-2.84,7.25-.09.14-.46.66-.46,1.36,0,.23.04.63.34,1.17.26.46.8,1.17,2.69,2.16Z" fill="#8e6238" stroke-width="0"/>
    <path d="m209.89,68.51c-.9.47-1.99,1.03-3.59,1.39-1.4.32-2.19.49-3,.31-2.47-.53-3.33-3.97-4.25-5.95-1.32-2.84-2.64-5.69-3.96-8.53-.19-.41-.8-2.39-2.06-6.32-.7-2.17-.84-2.64-.62-3.29.49-1.5,2.47-2.18,6.42-3.54,2.07-.71,2.59-.72,3.08-.57,1.57.46,2.26,2.22,3.07,4.16,1.46,3.5,3.17,6.9,4.65,10.39,1.01,2.39,1.38,5.11,2.84,7.25.09.14.46.66.46,1.36,0,.23-.04.63-.34,1.17-.26.46-.8,1.17-2.69,2.16Z" fill="#8e6238" stroke-width="0"/>
    <path d="m217.17,0c-.98-.06,0,12.04-6.71,18.79-4.76,4.79-11.9,5.4-16.97,5.22,3.06.17,7.73.85,12.68,3.41,10.36,5.36,11.64,16.64,12.7,19.48-.49-1.17.99-9.12,3.62-15.29,2.44-5.73,10.72-9.63,17.32-10.14-4.45.78-11.96-1.24-15.76-4.58C217.39,11.04,218.22.06,217.17,0Z" fill="#fef37f" stroke-width="0"/>
    <path d="m50.68,135.97c-.98-.06,0,12.04-6.71,18.79-4.76,4.79-11.9,5.4-16.97,5.22,3.06.17,7.73.85,12.68,3.41,10.36,5.36,11.64,16.64,12.7,19.48-.49-1.17.99-9.12,3.62-15.29,2.44-5.73,10.72-9.63,17.32-10.14-4.45.78-11.96-1.24-15.76-4.58-6.66-5.86-5.83-16.83-6.88-16.89Z" fill="#fef37f" stroke-width="0"/>
    <path d="m239.27,40.68c-.58-.02-.12,6.63-4.17,10.42-2.87,2.68-7.12,3.09-10.13,3.04,1.82.06,4.58.39,7.5,1.75,6.1,2.85,6.75,9.05,7.35,10.61-.28-.64.68-5.03,2.3-8.46,1.5-3.18,6.46-5.41,10.39-5.75-2.65.47-7.09-.56-9.32-2.37-3.9-3.16-3.29-9.21-3.92-9.24Z" fill="#fef37f" stroke-width="0"/>
    <path d="m21.62,99.66c-.58-.02-.12,6.63-4.17,10.42-2.87,2.68-7.12,3.09-10.13,3.04,1.82.06,4.58.39,7.5,1.75,6.1,2.85,6.75,9.05,7.35,10.61-.28-.64.68-5.03,2.3-8.46,1.5-3.18,6.46-5.41,10.39-5.75-2.65.47-7.09-.56-9.32-2.37-3.9-3.16-3.29-9.21-3.92-9.24Z" fill="#fef37f" stroke-width="0"/>
    <path d="m11.59,131.31c-.47-.02-.07,5.52-3.35,8.65-2.33,2.22-5.79,2.54-8.24,2.49,1.48.06,3.73.35,6.11,1.49,4.98,2.4,5.53,7.56,6.03,8.86-.23-.53.53-4.19,1.84-7.03,1.21-2.64,5.24-4.48,8.43-4.74-2.16.38-5.77-.5-7.59-2.01-3.19-2.65-2.72-7.68-3.23-7.7Z" fill="#fef37f" stroke-width="0"/>
  </g>
</svg>