<?xml version="1.0" encoding="UTF-8"?>
<svg id="Layer_2" data-name="Layer 2" xmlns="http://www.w3.org/2000/svg" width="auto" height="auto" xmlns:xlink="http://www.w3.org/1999/xlink" viewBox="0 0 287.92 222.49">
  <defs>
    <linearGradient id="mech-linear-gradient" x1="129.51" y1="169.38" x2="129.51" y2="89.05" gradientTransform="translate(-18.22 18.7) rotate(-11.37)" gradientUnits="userSpaceOnUse">
      <stop offset="0" stop-color="#f4b27a"/>
      <stop offset="1" stop-color="#b5845d"/>
    </linearGradient>
    <linearGradient id="mech-linear-gradient-2" x1="199.46" y1="181.1" x2="199.46" y2="85.34" gradientTransform="translate(-3.14 -6.97) rotate(.54)" gradientUnits="userSpaceOnUse">
      <stop offset="0" stop-color="#f4b27a"/>
      <stop offset="1" stop-color="#cf9668"/>
    </linearGradient>
    <linearGradient id="mech-linear-gradient-3" x1="151.04" y1="210.51" x2="135.71" y2="134.26" gradientUnits="userSpaceOnUse">
      <stop offset="0" stop-color="#827dbb"/>
      <stop offset=".08" stop-color="#9f9bca"/>
      <stop offset=".17" stop-color="#bcb9da"/>
      <stop offset=".28" stop-color="#d4d3e8"/>
      <stop offset=".39" stop-color="#e7e6f2"/>
      <stop offset=".53" stop-color="#f4f4f9"/>
      <stop offset=".7" stop-color="#fcfcfd"/>
      <stop offset="1" stop-color="#fff"/>
    </linearGradient>
    <linearGradient id="mech-linear-gradient-4" x1="136.47" y1="138.26" x2="136.47" y2="16.53" gradientTransform="translate(-18.22 18.7) rotate(-11.37)" gradientUnits="userSpaceOnUse">
      <stop offset="0" stop-color="#f4b27a"/>
      <stop offset=".28" stop-color="#efae77"/>
      <stop offset=".61" stop-color="#e1a370"/>
      <stop offset=".96" stop-color="#ca9265"/>
      <stop offset="1" stop-color="#c79064"/>
    </linearGradient>
    <linearGradient id="mech-linear-gradient-5" x1="139.08" y1="124.11" x2="139.08" y2="17.96" gradientTransform="translate(-18.22 18.7) rotate(-11.37)" gradientUnits="userSpaceOnUse">
      <stop offset="0" stop-color="#25896b"/>
      <stop offset="1" stop-color="#213366"/>
    </linearGradient>
    <linearGradient id="mech-linear-gradient-6" x1="147.11" y1="111.08" x2="147.11" y2="49.3" xlink:href="#mech-linear-gradient-5"/>
  </defs>
  <g id="Layer_4" data-name="Layer 4">
    <path d="m85.1,66.11c-23.58-5.4-49.58,1.17-67.95,17.05C4.82,93.82-2.17,110.1.61,126.39c1.78,10.42,7.32,20.16,15.37,27.01,5.57,4.74,32.4,17.15,18.39,25.31-9.42,5.48-19.48,11.58-17.12,24.3,1.43,7.7,7.74,13.87,15.02,16.76,11.16,4.44,25.78,3.39,36.21-2.58,5.23-2.99,9.7-7.12,14.55-10.69,16.44-12.08,39.27-9.94,57.73-4.12,12.11,3.82,23.89,9.17,36.58,10.81,11.67,1.5,23.13,2.1,34.91.78,22.73-2.54,45.71-10.76,62.83-26.3,6.91-6.27,12.28-14.79,12.78-24.11.7-13.03-6.89-22.03-17.35-28.63-13.85-8.73-40.1-10.48-38.77-32.29,1.14-18.66,19.05-31.08,20.69-50.22,1.82-21.26-14.62-38.51-33.18-46.07-16.82-6.86-44.01-10.33-65.11,1.15-19.43,10.58-30.55,32.42-36.59,52.86-1.47,4.96-3.33,10.79-8.27,12.35-3.82,1.21-7.82-.76-11.48-2.38-4.11-1.82-8.37-3.21-12.7-4.21Z" fill="#f78f1e" stroke-width="0"/>
    <path d="m92.93,85.73c-.51,2.22.24,3.18-.06,6.04-.6,5.74-4.4,9.68-4.96,10.24-5.56,5.61-13.27,5.08-14.47,4.98.95,1.98,2.43,4.76,4.61,7.84,2.55,3.62,5.84,8.27,11.82,11.97.75.46,8.53,5.2,14.14,4.49.42-.05,4.66-.62,4.66-.62h0s1.22-.86,3.49-2.46c-.87-3.13-2.16-7.83-3.69-13.61-.81-3.05-1.22-4.58-1.35-5.15-2.65-10.85-2.06-15.34-4.59-25.23-.38-1.48-1.01-3.79-1.97-6.62-3.08,1.58-6.72,4.15-7.62,8.1Z" fill="#25896b" stroke-width="0"/>
    <path d="m133.11,86.18c-.51,2.22.24,3.18-.06,6.04-.6,5.74-4.4,9.68-4.96,10.24-5.56,5.61-13.27,5.08-14.47,4.98.95,1.98,2.43,4.76,4.61,7.84,2.55,3.62,5.84,8.27,11.82,11.97.75.46,8.53,5.2,14.14,4.49.42-.05,4.66-.62,4.66-.62h0s1.22-.86,3.49-2.46c-.87-3.13-2.16-7.83-3.69-13.61-.81-3.05-1.22-4.58-1.35-5.15-2.65-10.85-2.06-15.34-4.59-25.23-.38-1.48-1.01-3.79-1.97-6.62-3.08,1.58-6.72,4.15-7.62,8.1Z" fill="#25896b" stroke-width="0"/>
    <path d="m112.43,144c2.33-4.69.75-10.05-1.94-19.17-.67-2.26-1.41-4.33-3.08-10.01-2.18-7.43-2.26-8.45-1.69-9.44,2.78-4.83,16.14-.97,17.54-.55,5.35,1.59,6.8,3.54,7.36,4.9.49,1.19.34,2.02.37,3.96,0,0,.07,3.78,1.44,9.28.9,3.59,2.24,8.99,6.76,12.46,1.15.88,2.68,2.03,4.91,2.2,3.39.26,4.97-2.39,7.76-3.69,7.06-3.29,16.87,3.96,19.46,5.87,2.73,2.01,9.25,6.82,10.85,14.83.6,2.98.08,4.29-1.13,12.35-1.03,6.8-1.64,13.66-2.47,20.48-.88,7.2-2.74,14.28-3.33,21.5-.06.71-.13,1.73-.69,2.9-1.55,3.26-5.4,4.74-14.87,6.39-11.72,2.04-17.65,3.01-21.38.47-1.82-1.24-1.17-1.56-5.77-7.56-3.24-4.22-6.48-8.44-11.3-12.82-7.04-6.41-8.23-8.26-9.25-8.98-2.7-1.9-3.31-1.82-4.12-3.05-2.98-4.52,2.85-9.11,1.03-15.51-1.65-5.78-7.65-6.35-7.52-11.24.05-1.79,1.23-3.48,3.58-6.78,4.47-6.27,5.98-5.76,7.48-8.79Z" fill="url(#mech-linear-gradient)" stroke-width="0"/>
    <path d="m167.02,132.62c3.96.88,6.62,2.87,9.75,5.21,1.94,1.45,3.58,2.74,7.26,5.51,2.22,1.67,4.16,2.54,13.17,5.27,7.94,2.4,11.67,3.34,13.68,3.8,1.75.4,2.6.62,2.6.62,1.52.34,1.58.3,2.25.5,1.37.41,1.77.75,2.01.55.38-.31-.16-1.47-.68-2.82-.6-1.57-.93-3.24-1.45-4.84-.61-1.87-.98-3.91-1.35-8.92-.32-4.19-.57-7.62-.55-13.22.06-11.74.2-16.34-1.81-17.16-.3-.12-.35-.04-3.16-.64-1.66-.36-2-.47-2.22-.82-.43-.71.31-1.39.12-3.25-.07-.68-.18-.66-.2-1.23-.04-1.12.34-1.9.66-2.69,1.02-2.5.42-2.73,1.37-4.58.66-1.29.84-.92,1.58-2.36,1.12-2.19,1.67-4.07,1.67-4.07,1.23-4.06,1.01-4.75,1.99-5.72.81-.8,1.78-1.15,2.26-1.25,5.2-1.17,14.94,10.88,12.35,16.34-.93,1.96-3.08,2.32-4.23,5.53-.56,1.57-.53,2.93-.55,4.47-.03,3.19.73,5.6,1.31,7.39,1.71,5.17,2.56,7.76,3.91,10.63,3.73,7.92,5.76,16.07,6.36,20.87,1.12,8.97,1.26,18.02-.55,26.91-.11.56-.29,1.77-1.22,2.63-2.54,2.36-8.16.09-10.19-.7-12.82-4.96-26.64-6.82-39.95-10.26-9.09-2.35-16.8-3.96-19.05-8.29-2.47-4.73-3.56-10.55-3.56-10.55-.06-.34-.11-.62-.14-.8-.02-.29-.07-.8-.22-1.4-1.26-5.05-6.75-6.35-6.41-8.33.32-1.86,5.48-2.44,6.98-2.61,3.21-.36,5.68.16,6.21.28Z" fill="url(#mech-linear-gradient-2)" stroke-width="0"/>
    <path d="m84.87,211.28c5.11-15.84,3.7-33.08,6.12-49.54.48-3.25,1.89-8.34,5.54-13.08,1.82-2.37,4.85-4.47,7.63-3.37,1.23.49,2.16,1.52,3,2.55,4.85,5.98,8.44,13.42,7.98,21.11-.39,6.48-3.55,12.41-5.46,18.61-.65,2.1-3.4,21.68-3.56,29.52,0,.4-.02,1.38-.69,2.08-.48.51-1.58,1.16-8.91-.65-3.85-.95-1.56-.63-7.5-2.38-1.98-.58-3.59-1.01-4.18-2.35-.47-1.05-.08-2.17.03-2.5Z" fill="#f4b27a" stroke-width="0"/>
    <path d="m106.17,140.24c3.66-1.28,7.79,2.76,15.81,9.54,10.42,8.79,21.33,17,32.07,25.4,1.86,1.45,1.81-1.05,1.69-2.26-1.24-12.31.14-20.73-5.34-28.85-.62-.91-1.22-1.8-2.25-2.84-4.2-4.26-9.09-4.58-8.96-5.81.07-.68,1.37-.73,5.25-2.09,3.36-1.17,3.83-1.55,5.4-1.76.93-.12,2.66-.24,4.31-.17.11,0,.2,0,.32.02.59.04,1.5.2,3.39.79,1.33.42,2.83.89,4.4,1.64,3.01,1.43,4.94,3.32,7.17,5.32,2.43,2.19,4.58,4.68,6.49,7.34,5.42,7.56,10.53,17.08,9.32,26.65-.16,1.25-.56,2.71-.56,2.71-.28,1.21-.76,3.15-1.52,5.47-.98,2.99-1.32,3.26-2.08,5.46-1.06,3.1-1.15,3.6-2.37,10.47-.6,3.39-1.21,5.02-2.46,5.64-1.82.9-4.01-.98-6.21-2.05-8.21-4.01-23.23,0-30.05,7.94-1.64,1.91-4.1,5.54-6.72,5.11-1.11-.18-2.08-1.08-3.01-1.87-1.79-1.53-2.67-3.19-2.99-3.78-2.19-4.02-5.59-7.95-7.04-9.63-5.26-6.07-8.48-4.89-9.51-8.47-1.14-3.97,2.67-5.43,3.62-12.13,1.2-8.47-3.62-15.5-4.19-16.3-3.07-4.33-8.27-8.16-8.56-8.38-3.44-2.5-6.18-3.67-6.04-5.42.08-.92.89-1.43,4.35-3.67,6.06-3.92,6.01-3.93,6.27-4.02Z" fill="url(#mech-linear-gradient-3)" stroke-width="0"/>
    <path d="m187.44,123.32c-5.73.74-8.86,4.94-9.64,5.97-4.09,5.48-3,11.7-2.79,12.8,2.65,1.18,5.3,2.36,7.95,3.54.06-5.25,4.12-9.14,8.27-9.06,4.06.08,7.02,3.94,7.65,7.54.62,3.55-.94,7.24-4.04,9.48,1.81,1.54,3.63,3.07,5.44,4.61.64-.23,1.53-.6,2.52-1.18,0,0,2.08-1.23,3.82-3.25,4.88-5.67,4.21-12.66,4.21-12.66-.69-7.08-5.76-11.01-6.59-11.63,9.62-18.03,19.25-36.05,28.87-54.08,1.35.81,4.67,2.49,8.93,1.94,5.73-.74,8.86-4.94,9.64-5.97,4.09-5.48,3-11.7,2.79-12.8-2.65-1.18-5.3-2.36-7.95-3.54-.06,5.25-4.12,9.14-8.27,9.06-4.06-.08-7.02-3.94-7.65-7.54-.62-3.55.94-7.24,4.04-9.48-1.81-1.54-3.63-3.07-5.44-4.61-.64.23-1.53.6-2.52,1.18,0,0-2.08,1.23-3.82,3.25-4.88,5.67-4.21,12.66-4.21,12.66.61,6.31,4.7,10.1,6.17,11.3-9.37,18.21-18.74,36.41-28.11,54.62-1.06-.67-4.6-2.75-9.27-2.15Z" fill="#8e8e8e" stroke-width="0"/>
    <path d="m229.18,94.4c-.02-5.26-6.65-8.68-9.46-10.13-2.75-1.42-4.78-1.69-6.55-1.25-.8.2-2.29.57-2.96,1.94-.79,1.61.17,3.34.29,3.55-.48.08-1.69.36-2.69,1.4-1.39,1.44-1.35,3.27-1.32,3.77.05.84.3,1.49.48,1.89-.46-.03-1.54-.05-2.31.66-1.5,1.36-.47,4.15-.34,4.48.57,1.48,1.6,2.33,2.21,2.85,6.07,5.12,5.66,6.04,7.18,6.26,2.31.32,4.42-1.72,8.53-5.82,4.63-4.62,6.95-6.93,6.94-9.59Z" fill="#f4b27a" stroke-width="0"/>
    <path d="m180.01,57.95c-.48-2.25-1.05-3.96-1.35-4.88-4.79-14.39-18.41-25.35-33.55-28.33-13.58-2.68-31.52.44-40.82,12.67-1.21,1.59-2.2,3.26-3.03,4.96-4.43-3.7-10.46-7.98-18.23-11.66-14.26-6.77-27.32-8.21-34.83-8.51.86,4.79,2.64,11.58,6.6,19.13,1.69,3.22,5.38,10.11,12.29,16.83,10.17,9.89,22.1,14.35,29.55,16.4.29,4.19.9,7.79,1.52,10.63-.03,3.88.48,10.23,3.84,16.92,5.64,11.24,16.43,18.03,26.97,24.09,1.91,1.1,4.4,2.71,6.73,2.53,3.06-.24,5.31-2.94,7.68-4.58,3.06-2.12,6.39-3.84,9.5-5.9,3.5-2.31,6.85-5.11,9.21-8.59,2.16-3.19,2.68-7.19,4.1-10.72,1.75-4.36,3.38-5.34,6.49-10.02.18-.27.71-1.08,1.42-2.25,4.01-1.72,8.35-4.15,12.39-7.62,5.31-4.55,8.26-9.29,9.62-11.5,3.18-5.2,4.74-9.91,5.54-13.23-4.78.04-12.66.59-21.65,3.63Z" fill="url(#mech-linear-gradient-4)" stroke-width="0"/>
    <path d="m149.2,98.52c-.45-2.72-1.19-9.7,2.79-16.34,1.14-1.9,3.86-6.45,9.03-7.82,1.12-.3,4.86-1.47,7.06.68,1.79,1.75,2.36,4.77,2.29,7.55,0,.34,0,.58,0,.76-.05,2.85-.69,5.04-3.04,11.22-1.3,3.41-1.7,4.31-2.73,5.26-1.33,1.23-2.82,1.74-3.11,1.83-1.34.44-2.44.43-3.03.42-1.63-.03-2.83-.46-4.02-.89-1.29-.47-2.28-1-3.37-1.58-.78-.42-1.42-.8-1.88-1.08Z" fill="#fff" stroke-width="0"/>
    <path d="m129.41,80.95c.17,1.78-.05,3.91-.48,8.16-.28,2.76-.62,5.03-.88,6.59-1.34.69-3.14,1.42-5.32,1.8-2,.35-3.6.3-4.21.27-1.03-.06-1.99-.2-2.76-.33-.56-.1-1.11-.19-1.83-.39-.6-.16-1.36-.38-2.27-.84,0,0-.59-.3-1.13-.67-2.06-1.41-3.45-4.66-3.45-4.66-1.58-3.44-1.48-6.67-1.41-8.46.15-3.64,1.19-6.37,1.75-7.65,1.19-2.73,2.15-4.98,4.49-6.42,3.9-2.41,8.54-.72,8.99-.55,5.77,2.19,8.13,8.99,8.52,13.15Z" fill="#fff" stroke-width="0"/>
    <ellipse cx="157.62" cy="86.65" rx="10.6" ry="6.61" transform="translate(40.23 222.93) rotate(-78.06)" fill="#185e46" stroke-width="0"/>
    <ellipse cx="116.67" cy="80.46" rx="11.5" ry="7.52" transform="translate(28.01 191.02) rotate(-85.86)" fill="#185e46" stroke-width="0"/>
    <ellipse cx="116.71" cy="80.45" rx="8.38" ry="5.43" transform="translate(28.06 191.06) rotate(-85.86)" stroke-width="0"/>
    <ellipse cx="157.62" cy="86.83" rx="7.72" ry="4.77" transform="translate(40.06 223.07) rotate(-78.06)" stroke-width="0"/>
    <path d="m165.13,91.35c-.34,1.59-1.97,2.58-3.65,2.23s-2.77-1.93-2.43-3.51c.34-1.59,1.97-2.58,3.65-2.23,1.68.36,2.77,1.93,2.43,3.51Z" fill="#fff" stroke-width="0"/>
    <path d="m125.95,83.45c-.12,1.62-1.68,2.82-3.48,2.69s-3.18-1.55-3.06-3.16c.12-1.62,1.68-2.82,3.48-2.69,1.81.13,3.18,1.55,3.06,3.16Z" fill="#fff" stroke-width="0"/>
    <path d="m129.17,87.87c.17,0,.34-1.34.45-2.26.14-1.12.38-3.02.28-5.02-.11-2.29-.25-5.12-1.98-7.97-2.16-3.56-6.18-6.12-10.3-6.36-.31-.02-6.8-.4-10.43,4.47-2.25,3.02-2.43,6.5-2.56,8.83-.22,4.2.86,7.94,1.14,7.9.2-.03-.13-1.92.1-4.41.15-1.69.84-9.41,6.13-12.46,3.65-2.1,7.45-.81,8.13-.57,2.24.81,3.69,2.33,4.43,3.11.57.6,1.69,1.88,2.66,3.97,2.49,5.34,1.6,10.75,1.94,10.76Z" stroke-width="0"/>
    <path d="m149.47,88.41c-.18-.03-.2-1.38,0-2.78.6-4.05,3.37-10.52,9.38-12.39.99-.31,3.79-1.18,6.82.09,2.92,1.23,4.25,3.65,4.61,4.38.22.45,1.07,2.25,1.13,4.8.11,4.34-2.15,7.84-2.39,7.71-.14-.07.45-1.27.63-3.2.09-.95.76-7.48-3.52-10.26-2.66-1.73-5.82-1.01-6.72-.8-2.15.49-3.6,1.61-4.21,2.09-.3.24-1.65,1.33-3.01,3.55-2.15,3.53-2.44,6.84-2.73,6.8Z" stroke-width="0"/>
    <path d="m154.74,67.09c-.16-.09.04-.56.45-.96,1.19-1.14,4.75-2.19,10.49-.29.94.31,3.62,1.2,6.16,2.93,2.44,1.66,3.26,3.06,3.47,3.47.13.25.61,1.23.25,2.13-.6,1.54-3.21,1.79-3.41,1.64-.11-.08.61-.25,1.09-.83.24-.29,1.89-2.25-1.53-5.03-2.13-1.72-5.1-2.82-5.96-3.13-2.03-.74-3.52-.97-4.15-1.07-.31-.05-1.71-.24-3.3-.05-2.52.3-3.31,1.32-3.57,1.18Z" stroke-width="0"/>
    <path d="m129.51,62.81c.19-.05.1-.56-.23-1.03-.97-1.37-4.48-3.11-11.07-2.39-1.08.12-4.16.46-7.3,1.64-3.02,1.14-4.26,2.36-4.59,2.71-.2.22-.96,1.09-.82,2.05.24,1.64,2.94,2.4,3.2,2.3.14-.06-.58-.36-.94-1.04-.18-.33-1.42-2.6,2.93-4.64,2.71-1.27,6.15-1.75,7.14-1.88,2.35-.33,3.99-.25,4.69-.22.35.02,1.88.1,3.51.61,2.59.8,3.17,1.97,3.48,1.88Z" stroke-width="0"/>
    <g id="Layer_6" data-name="Layer 6">
      <path d="m148.49,18.01h0s0,0,0,0c.1-.02,7.48.2,7.48.2,2.55.43,7.04,1.54,11.69,4.71,4.55,3.09,7.01,6.66,8.43,8.77,3.29,4.86,3.6,7.74,7.75,19.46,2.42,6.83,3.63,10.25,4.39,11.67,2.78,5.17,8.56,11.71,22.09,16.44-3.72.48-11.47.91-19.35-3.25-2.51-1.32-4.53-2.85-6.13-4.28,1.56,2.89,3.61,6.1,6.3,9.35,6.81,8.25,14.57,12.95,19.92,15.55-2.4,1.05-5.61,2.3-9.52,3.4-4.08,1.15-6.98,1.59-10.63,2.14-8.4,1.25-10.29.6-11.56-.37-1.78-1.36-2.57-3.52-2.43-3.62.14-.09,1.39,1.37,5.4,6.78-1.72-.34-3.99-1-6.42-2.32-4.34-2.37-6.86-5.63-8.1-7.51,1.17-1.59,2.69-3.87,4.16-6.79,1.05-2.08,1.2-2.75,1.26-3.23.49-3.77-3.11-7.11-4.67-8.42-3.61-9.13-7.21-18.25-10.82-27.38-.69.94-2.33,2.91-5.15,4.01-4.09,1.6-7.83.3-9.44-.44-5.04-2.32-6.66-7.15-6.92-7.96-2.38,1.71-5.86,4.39-9.64,8.1-8.08,7.92-10.49,13.58-14.49,18.86-12.35,16.29-34.42,21.86-35.5,20.11-.3-.49.74-2.08,6.7-6.87-3.4-.02-7.77-.39-12.67-1.7-3.21-.86-5.97-1.94-8.26-3.02,3.68-2.87,7.35-5.73,11.03-8.6-4.51.13-9.02.25-13.53.38,1.94-.83,4.57-2.07,7.52-3.85,9.21-5.57,14.48-12.16,15.56-13.55,4.08-5.22,2.85-5.82,9.47-17.42,4.52-7.93,6.78-11.9,9.43-14.44,2.97-2.85,10.47-8.53,26.73-7.71-.7-1.01-1.98-2.5-4.03-3.39-3.62-1.57-8.11-.61-11.65,2.34,1.75-1.58,5.56-4.57,11.28-5.78,7.03-1.48,13.21.83,16.77,2.53" fill="url(#mech-linear-gradient-5)" stroke-width="0"/>
      <path d="m145.03,52.61c2.47-3.31,5.29-5.47,7.35-6.79,1.91,5.91,4.41,12.42,7.7,19.29,5.4,11.25,11.49,20.43,17.03,27.62-3.24-7.12-5.35-13.14-6.68-17.37-3.85-12.17-4.81-20.61-10.87-33.96-.75-1.66-1.41-3-1.84-3.88-1.24-.15-4.5-.39-8.01,1.4-3.05,1.56-4.71,3.84-5.39,4.91-.11-2.47-.49-6.69-2.05-7.03-1.92-.42-4.65,5.26-5.71,7.53-5.66,12-6.01,22.5-6.76,28.78-.92,7.69-3.54,18.37-11.21,30.96,1.96-1.51,4.88-3.99,7.84-7.53,7.99-9.55,11.11-20.63,12.6-26.13,2.33-8.59,1.98-12.4,5.99-17.79Z" fill="url(#mech-linear-gradient-6)" stroke-width="0"/>
    </g>
    <path d="m133.51,114.39c.09.13,1.44,1.92,4.03,2.04,2.14.09,4.21-1.01,5-2.74-3.01.23-6.01.47-9.02.7Z" fill="#e78c76" stroke-width="0"/>
    <path d="m143.88,113.2c-3.83,1.31-8.27,1.24-12.07.19" fill="none" stroke="#a36b5a" stroke-linecap="round" stroke-miterlimit="10" stroke-width=".8"/>
    <path d="m135.7,104.65c.56-.33,1.8.53,3.82.43,1.03-.05,1.85-.33,2.4-.57,0,.16-.05,1.21-1.31,1.86-1.21.63-3.16.7-4.25,0-.81-.52-1.12-1.44-.65-1.72Z" fill="#a36b5a" opacity=".35" stroke-width="0"/>
    <path d="m93,154.7c-.35-.1-.33-6.32,2.43-7.89,4.09-2.32,14.38,5.54,19.72,14.92,1.89,3.32,7.97,14,2.92,21.46-2.4,3.54-6.33,4.93-8.64,5.5,1.02-1.34,2.36-3.41,3.27-6.16,3.44-10.38-2.66-19.63-3.39-20.71-4.32-6.32-12.1-11.26-14.87-9.46-1.1.71-1.25,2.39-1.44,2.33Z" fill="#992120" stroke-width="0"/>
    <path d="m147.99,132.04s7.08-2.07,14.15-.46c9.25,2.11,14.88,9.66,17.52,13.19,2.63,3.52,6.45,8.78,6.7,16.3.11,3.19-.46,5.85-1,7.65-1.1-4.02-3.09-9.78-6.78-16.06-1.98-3.37-4.72-7.95-9.79-12.55-3.6-3.27-9.17-8.19-16.56-8.41-2.29-.07-4.24.33-4.24.33Z" fill="#992120" stroke-width="0"/>
    <path d="m129.07,212.93c2.32-2.01,5.76-4.69,10.28-7.24,3.87-2.19,12.97-6.78,25.55-7.97,3.55-.34,8.52-.51,14.43.25l-.09,5.84c-5.46-.45-9.99-.24-13.21.06-17.29,1.61-29,8.79-32.06,10.76-1.14.74-2.06,1.37-2.64,1.79-.75-1.16-1.51-2.32-2.26-3.48Z" fill="#992120" stroke-width="0"/>
  </g>
</svg>