<?xml version="1.0" encoding="UTF-8"?>
<svg id="Layer_2" data-name="Layer 2" xmlns="http://www.w3.org/2000/svg" width="auto" height="auto" xmlns:xlink="http://www.w3.org/1999/xlink" viewBox="0 0 287.92 237.42">
  <defs>
    <linearGradient id="morph-linear-grad" x1="171.85" y1="5.68" x2="149.68" y2="111.11" gradientUnits="userSpaceOnUse">
      <stop offset="0" stop-color="#d0be2c"/>
      <stop offset=".17" stop-color="#ccbc2c"/>
      <stop offset=".33" stop-color="#c0b82e"/>
      <stop offset=".49" stop-color="#acb231"/>
      <stop offset=".65" stop-color="#90a935"/>
      <stop offset=".81" stop-color="#6c9d3a"/>
      <stop offset=".97" stop-color="#418f40"/>
      <stop offset="1" stop-color="#388c42"/>
    </linearGradient>
    <linearGradient id="morph-linear-grad-2" x1="164.57" y1="128.7" x2="153.52" y2="100.2" gradientUnits="userSpaceOnUse">
      <stop offset="0" stop-color="#eed5c0"/>
      <stop offset="1" stop-color="#e0974f"/>
    </linearGradient>
    <linearGradient id="morph-linear-grad-3" x1="142.83" y1="126.28" x2="142.83" y2="52.72" gradientUnits="userSpaceOnUse">
      <stop offset="0" stop-color="#eed5c0"/>
      <stop offset=".17" stop-color="#edd2bc"/>
      <stop offset=".35" stop-color="#ecccb0"/>
      <stop offset=".52" stop-color="#e9c19c"/>
      <stop offset=".69" stop-color="#e6b280"/>
      <stop offset=".86" stop-color="#e19e5d"/>
      <stop offset=".92" stop-color="#e0974f"/>
    </linearGradient>
    <linearGradient id="morph-linear-grad-4" x1="203.92" y1="50.15" x2="253.51" y2="4.82" xlink:href="#morph-linear-grad-3"/>
    <linearGradient id="morph-linear-grad-5" x1="98.52" y1="68.2" x2="93.17" y2="36.02" xlink:href="#morph-linear-grad-3"/>
    <linearGradient id="morph-linear-grad-6" x1="44.22" y1="167.14" x2="101.93" y2="158.99" gradientUnits="userSpaceOnUse">
      <stop offset="0" stop-color="#2a4367"/>
      <stop offset=".19" stop-color="#274063"/>
      <stop offset=".38" stop-color="#203657"/>
      <stop offset=".57" stop-color="#132743"/>
      <stop offset=".65" stop-color="#0d2039"/>
    </linearGradient>
    <linearGradient id="morph-linear-grad-7" x1="87.93" y1="156.94" x2="138.33" y2="156.94" gradientUnits="userSpaceOnUse">
      <stop offset="0" stop-color="#2a4367"/>
      <stop offset=".3" stop-color="#274063"/>
      <stop offset=".59" stop-color="#203657"/>
      <stop offset=".88" stop-color="#132743"/>
      <stop offset="1" stop-color="#0d2039"/>
    </linearGradient>
    <linearGradient id="morph-linear-grad-8" x1="73.76" y1="140.18" x2="87.93" y2="140.18" xlink:href="#morph-linear-grad-7"/>
    <linearGradient id="morph-linear-grad-9" x1="148.88" y1="77.1" x2="148.88" y2="239.65" xlink:href="#morph-linear-grad-7"/>
    <linearGradient id="morph-linear-grad-10" x1="128.93" y1="122.01" x2="199.07" y2="112.11" gradientUnits="userSpaceOnUse">
      <stop offset="0" stop-color="#681112"/>
      <stop offset=".23" stop-color="#6b1112"/>
      <stop offset=".46" stop-color="#771415"/>
      <stop offset=".68" stop-color="#8b171a"/>
      <stop offset=".91" stop-color="#a71d21"/>
      <stop offset="1" stop-color="#b52025"/>
    </linearGradient>
    <linearGradient id="morph-linear-grad-11" x1="31.82" y1="74.73" x2="92.71" y2="74.73" gradientUnits="userSpaceOnUse">
      <stop offset="0" stop-color="#7c8277"/>
      <stop offset=".27" stop-color="#7e8479"/>
      <stop offset=".44" stop-color="#868c81"/>
      <stop offset=".58" stop-color="#949990"/>
      <stop offset=".7" stop-color="#a8aca4"/>
      <stop offset=".81" stop-color="#c1c4bf"/>
      <stop offset=".92" stop-color="#e0e1df"/>
      <stop offset="1" stop-color="#fff"/>
    </linearGradient>
    <linearGradient id="morph-linear-grad-12" x1="73.36" y1="168.05" x2="153.01" y2="168.05" xlink:href="#morph-linear-grad-11"/>
    <linearGradient id="morph-linear-grad-13" x1="183.2" y1="151.86" x2="183.2" y2="238.65" xlink:href="#morph-linear-grad-7"/>
    <linearGradient id="morph-linear-grad-14" x1="73.36" y1="156.94" x2="98.07" y2="156.94" xlink:href="#morph-linear-grad-3"/>
    <linearGradient id="morph-linear-grad-15" x1="60" y1="92.23" x2="83.58" y2="92.23" xlink:href="#morph-linear-grad-3"/>
    <linearGradient id="morph-linear-grad-16" x1="55.5" y1="88.41" x2="78.96" y2="88.41" xlink:href="#morph-linear-grad-3"/>
    <linearGradient id="morph-linear-grad-17" x1="50.86" y1="84.93" x2="70.92" y2="84.93" xlink:href="#morph-linear-grad-3"/>
    <linearGradient id="morph-linear-grad-18" x1="44.26" y1="80.87" x2="63.5" y2="80.87" xlink:href="#morph-linear-grad-3"/>
    <linearGradient id="morph-linear-grad-19" x1="46.72" y1="111.56" x2="75.07" y2="111.56" xlink:href="#morph-linear-grad-7"/>
    <linearGradient id="morph-linear-grad-20" x1="137" y1="66.41" x2="159.47" y2="66.41" xlink:href="#morph-linear-grad-10"/>
    <linearGradient id="morph-linear-grad-21" x1="144.45" y1="117.18" x2="141.99" y2="128.87" xlink:href="#morph-linear-grad"/>
    <linearGradient id="morph-linear-grad-22" x1="50.83" y1="-266.78" x2="46.14" y2="-244.49" gradientTransform="translate(266.06 324.13) rotate(-32.78)" xlink:href="#morph-linear-grad"/>
    <linearGradient id="morph-linear-grad-23" x1="143.28" y1="166.51" x2="143.28" y2="237.5" xlink:href="#morph-linear-grad-7"/>
    <linearGradient id="morph-linear-grad-24" x1="80.42" y1="179.35" x2="119.85" y2="179.35" xlink:href="#morph-linear-grad-7"/>
  </defs>
  <g id="Layer_4" data-name="Layer 4">
    <path d="m85.1,70.76c-23.58-5.4-49.58,1.17-67.95,17.05C4.82,98.47-2.17,114.75.61,131.03c1.78,10.42,7.32,20.16,15.37,27.01,5.57,4.74,32.4,17.15,18.39,25.31-9.42,5.48-19.48,11.58-17.12,24.3,1.43,7.7,7.74,13.87,15.02,16.76,11.16,4.44,25.78,3.39,36.21-2.58,5.23-2.99,9.7-7.12,14.55-10.69,16.44-12.08,39.27-9.94,57.73-4.12,12.11,3.82,23.89,9.17,36.58,10.81,11.67,1.5,23.13,2.1,34.91.78,22.73-2.54,45.71-10.76,62.83-26.3,6.91-6.27,12.28-14.79,12.78-24.11.7-13.03-6.89-22.03-17.35-28.63-13.85-8.73-40.1-10.48-38.77-32.29,1.14-18.66,19.05-31.08,20.69-50.22,1.82-21.26-14.62-38.51-33.18-46.07-16.82-6.86-44.01-10.33-65.11,1.15-19.43,10.58-30.55,32.42-36.59,52.86-1.47,4.96-3.33,10.79-8.27,12.35-3.82,1.21-7.82-.76-11.48-2.38-4.11-1.82-8.37-3.21-12.7-4.21Z" fill="#403d56" stroke-width="0"/>
  </g>
  <g id="Layer_10" data-name="Layer 10">
    <g id="Layer_18" data-name="Layer 18">
      <path d="m110.58,82.29c-.16-.06-.38-.19-.71-.42-1.18-.86-2.84-2.61-3.63-3.84-.72-1.14-1.69-3.46-2.01-4.69-.32-1.22-.71-3.81-.76-5.17-.06-1.65-.02-3.33.24-5.21.32-2.11.81-4.62,1.28-6.14.57-1.75,1.41-4.08,2.05-5.59,1.45-3.19,3.76-7.61,5.09-10.05.05-.09.11-.22.19-.38l-.09.6c-.05.75.6,3.38,1.45,5.41.15.35.47,1.13.52,1.23.05.09.15.27.31.54,0-.06,0-.11-.02-.14-.01-.03-.05-.1-.12-.19l-.63-1.11s0-.04,0-.05c.07-1.09.23-2.07.5-2.89.28-.81,2.12-3.66,2.87-4.52.76-.86,2.35-2.31,3.9-3.54,1.11-.87,2.65-1.86,4.44-2.8,2.84-1.41,8.98-4.41,10.68-5.29,1.42-.77,3.99-2.25,5.11-2.89.78-.43,1.05-.45,1.43-.39.05.38.05.59-.06.86-.35.86-4.29,7.9-4.31,7.93l.37-1.77c.71-.26,3.49-1.65,4.88-2.26,1.52-.65,4.41-1.6,5.81-1.92,1.32-.3,4.05-.66,5.53-.7,1.46-.04,3.34.06,5.1.25,2,.23,14.46,2.41,14.97,2.61.01.21-.19.43-.65.65-.84.4-7.22,1.69-8.82,2-1,.19-1.1.2-1.26.18l.42-.17-.69-.08c.07-.03.2-.06.47-.09.58-.08,1.85-.11,2.61.03.66.13,1.68.45,2.37.78.96.47,3.53,2.01,4.69,2.9.85.65,2.98,2.53,4.2,3.75,2.05,2.12,5.93,6.66,7.55,8.81,1.62,2.28,4.29,6.22,6.58,9.95,3.21,5.55,8.77,15.07,9.61,16.2.85,1.13,2.88,3.64,3.51,4.35.94,1.06,2.94,2.78,4.35,3.7,1.01.67,1.14.8,1.3,1.05-.04.21-.22.36-.58.47-.89.25-4.21.08-5.89-.05-4.13-.26-5.74-.53-6.39-.72-.36-.11-.56-.24-.72-.44l-.65.15c.93,1.48,2.09,3.12,2.55,3.98.59,1.11,1.38,3.69,1.66,5.23.31,1.73.75,9.02.91,12.11.16,2.14.47,4.49.78,5.89.17.74.57,2.04.94,2.9.29.68,1.11,2.12,1.11,2.13.02.06.02.2.02.4-.51.13-1.3-.03-1.95-.25-2.27-.8-3.69-1.37-4.98-2.17-2.5-1.62-9.33-6.09-10.21-6.73-.96-.71-3.11-2.59-3.47-3.2l.38.14c-.63.12-1.38.54-2.16.79-1.41.44-7.14,1.17-10.94,1.34-3.04.1-9.04.13-12.13.12-2.93-.06-8.87-.24-11.57-.51-3-.33-8.58-1.29-11.51-2-1.35-.37-3.99-1.16-5.24-1.6-1.73-.65-3.28-1.32-5.1-2.22-.81-.41-3.79-2.14-4.83-2.88-1.21-.87-3.49-2.91-4.05-3.49-.61-.63-2.88-3.7-3.3-4.36-.73-1.15-1.57-3.12-2.13-4.91-.62-1.91-1.06-2.45-1.2-2.59l.05.98Z" fill="url(#morph-linear-grad)" stroke-width="0"/>
    </g>
    <g id="Layer_5" data-name="Layer 5">
      <path d="m145.79,125.79c-.13-.69-.25-1.55-.43-3.99-.18-2.31-.48-4.54-.72-5.55-.08-.35-.42-1.5-.45-1.86-.04-.47.14-1.62.36-2.2.24-.65.95-1.81,1.53-2.49.72-.82,2.92-2.68,4.17-3.58,1.31-.92,2.54-1.69,4.11-2.51,1.94-.97,3.8-1.8,5.46-2.4,2.07-.75,3.94-.73,5.38-1.24.52-.18.8-.35,1.5-.53.34-.08.65-.14,1.03-.36.32-.18.54-.39.67-.54.21-.04.42-.09.63-.13.38-1.29.64-1.54.81-1.53.5.03.78,2.46.84,2.93.07.61.09,1.07.09,1.14.07,1.87.6,3.86,1.02,5.28.87,2.9,2.39,6.16,2.63,6.67.03.05.06.12.11.22l-.41-.64c.28.79.72,3.11.58,4.18-.07.55-.47,1.74-.79,2.32-.65,1.16-2.52,3.11-3.65,4-.87.69-3.11,2.15-4.53,2.83-1.22.58-3.48,1.44-5.16,1.88-1.75.44-3.86.81-5.57.92-2.91.17-7.23-.26-7.94-.53-.29-.12-.58-.38-.76-.67-.37-.67-.5-1.02-.58-1.76-.04-.38-.13-1.22-.14-1.33,0-.09,0-.25,0-.48" fill="url(#morph-linear-grad-2)" stroke-width="0"/>
    </g>
    <g id="Layer_2-2" data-name="Layer 2">
      <path d="m115.6,79.46c-.28.37-.46.74-.62,1.27-.86,2.87-.19,6.06,1.65,8.37,1.15,1.46,2.55,2.74,3.44,4.37,1.5,2.74,1.38,6.08,2.37,9.04,1.8,5.35,6.89,8.73,10.78,12.82,1.84,1.93,3.45,4.08,5.38,5.92s3.96,3.06,6.63,3.06c2.37,0,4.75-.61,6.9-1.6,2.51-1.15,5.05-2.78,6.91-4.84,3.47-3.85,6.68-8,8.92-12.67,2.25-4.67,3.5-9.91,2.97-15.07-.68-6.5-4.1-12.36-7.74-17.78-3.44-5.12-7.59-10.37-13.54-12.01-5.81-1.6-11.89.62-17.85,1.58-3.06.49-6.31.7-8.91,2.38-2.7,1.74-4.17,4.74-5.19,7.69-1.19,3.45-2.02,6.94-2.35,10.58,0,.05-.02.11-.04.17" fill="url(#morph-linear-grad-3)" stroke-width="0"/>
    </g>
    <g id="Layer_19" data-name="Layer 19">
      <path d="m168.84,78.98l-.12.61c-.22-.47-.47-3.42-.33-4.62.18-1.5.91-4.05,1.6-5.56.72-1.55,1.74-3.06,3.05-4.81,1.22-1.54,2.65-3.14,3.81-4.2,3.28-2.89,11.5-9.71,17.68-15.27,5.05-4.53,15.07-13.38,20.05-17.71,2.09-1.8,6.58-5.63,8.98-7.67,4.42-3.58,14.15-11.37,19.47-15.59,2.27-1.76,5.21-4.05,5.47-4.17-.24.61-1.62,2.72-2.37,3.87-2.7,3.82-11.76,15.91-14.68,19.54-4.03,4.94-12.11,14.97-15.88,19.85-3.48,4.7-10.63,14.98-14.47,20.39-1.83,2.5-5.97,7.99-7.23,9.45-.78.9-2.7,3-3.7,4.05-.94.96-3.66,3.31-4.36,3.85-1.08.81-3.28,2.37-4.63,3.19-2.46,1.46-5.6,2.39-5.89,2.38-.32-.02-1.04-.25-1.33-.42-.41-.24-1.17-1.16-1.68-1.83-.77-1.03-1.86-3.35-2.74-5.46-.41-.98-.47-1.12-.61-1.39" fill="url(#morph-linear-grad-4)" stroke-width="0"/>
    </g>
    <g id="Layer_19-2" data-name="Layer 19">
      <path d="m170.35,78.69l-.08.43c-.15-.33-.32-2.4-.23-3.23.13-1.05.63-2.84,1.11-3.9.5-1.09,1.2-2.15,2.11-3.37.84-1.08,1.84-2.2,2.64-2.94,2.27-2.02,7.96-6.8,12.24-10.7,3.49-3.17,10.44-9.38,13.89-12.41,1.45-1.26,4.56-3.95,6.22-5.37,3.06-2.51,9.8-7.97,13.48-10.92,1.57-1.24,3.61-2.84,3.79-2.92-.17.43-1.12,1.91-1.64,2.71-1.87,2.67-8.14,11.15-10.17,13.69-2.79,3.46-8.39,10.49-11,13.9-2.41,3.29-7.36,10.49-10.02,14.28-1.27,1.75-4.13,5.6-5.01,6.62-.54.63-1.87,2.1-2.56,2.83-.65.67-2.54,2.32-3.02,2.7-.75.57-2.27,1.66-3.21,2.23-1.7,1.02-3.88,1.68-4.08,1.66-.22-.02-.72-.17-.92-.29-.28-.17-.81-.81-1.16-1.28-.53-.72-1.29-2.34-1.9-3.82-.28-.69-.33-.78-.42-.97" fill="#e5c6ae" stroke-width="0"/>
    </g>
    <g id="Layer_20" data-name="Layer 20">
      <path d="m110.12,83.03c.5-.6,1.51-3.29,1.7-4.58.19-1.33.14-4.24-.06-5.71-.21-1.44-.88-4.13-1.28-5.19-.56-1.5-2.03-4.07-2.87-5.05-.68-.78-2.64-2.44-3.84-3.16-.59-.35-9.55-5.41-10.58-6.06-.96-.62-3.14-2.14-4.28-2.94-1.29-.94-2.83-2.19-4.31-3.56-1.98-1.88-3.19-3.1-3.27-3.08.37,1,3.71,7.75,5.12,10.55,1.3,2.43,4.29,7.66,5.88,10.3,1.62,2.6,5.49,8.37,6.58,9.83,1.28,1.65,2.83,3.46,3.84,4.38,1.06.96,3.64,2.54,4.88,2.96.67.22,1.87.28,2.27.18,1.09-.29,2.76-1.77,3.08-2.23.27-.4.3-1.24.19-2.12-.03-.22-.05-.36-.05-.43,0-.05-.01-.12-.02-.21" fill="url(#morph-linear-grad-5)" stroke-width="0"/>
    </g>
    <g id="Layer_20-2" data-name="Layer 20">
      <path d="m115.91,85.66c.45-.49,1.35-2.68,1.52-3.72.17-1.08.13-3.45-.06-4.65-.18-1.17-.79-3.36-1.14-4.22-.5-1.22-1.81-3.31-2.56-4.1-.61-.63-2.36-1.99-3.43-2.57-.52-.28-8.54-4.4-9.46-4.93-.85-.51-2.81-1.74-3.83-2.39-1.15-.76-2.53-1.78-3.85-2.89-1.77-1.53-2.85-2.52-2.92-2.5.33.82,3.32,6.3,4.58,8.58,1.16,1.97,3.83,6.23,5.25,8.38,1.45,2.12,4.91,6.81,5.89,7.99,1.15,1.34,2.53,2.81,3.43,3.56.95.78,3.25,2.06,4.36,2.41.6.18,1.67.23,2.03.15.97-.24,2.47-1.44,2.75-1.81.24-.32.27-1,.17-1.73-.02-.18-.04-.29-.05-.35,0-.04-.01-.1-.01-.17" fill="#e5c6ae" stroke-width="0"/>
    </g>
    <g id="Layer_10-2" data-name="Layer 10">
      <path d="m95.84,195.51c-1.13.14-2.7.27-4.56.18-2.31-.1-4.04-.49-5.59-.82-.74-.16-3.48-.92-4.7-1.34-1.29-.47-3.88-1.69-5.12-2.44-1.28-.79-3.62-2.71-4.72-3.86-.99-1.06-2.86-3.12-3.58-3.62,0,0-.02-.02-.02-.01l1.97-1.23s-.33.17-.59.32c-.6.32-1.79.64-2.74.76-1.64.19-3.62.23-4.64.16-1.11-.08-3.76-.53-4.95-.86-1.27-.35-3.6-1.33-4.47-1.95-.54-.39-1.32-1.13-1.74-1.67-.38-.48-1.03-1.6-1.25-2.1-.22-.5-.58-1.74-.68-2.36-.11-.7-.17-1.76-.15-2.63.04-1.41.37-3.25.84-5.39.32-1.42,1-4.53,1.15-5.49.19-1.26.36-4.08.3-5.46-.07-1.54-.48-4.44-.78-5.94-.33-1.5-1.05-4.45-1.42-5.89-.36-1.43-.84-4.63-.88-5.6-.04-1.26.42-3.7.86-4.62.43-.88.91-1.32,1.27-1.58.62-.46,1.25-.64,1.63-.72,4.13-1.48,14.41-4.48,24.77,0,3.74,1.62,6.11,3.61,8.35,5.52,11.69,9.99,15.2,22.71,19.3,37.62,2.73,9.91,2.72,14.07.36,17.06-2.23,2.83-5.82,3.68-8.2,3.97Z" fill="url(#morph-linear-grad-6)" stroke-width="0"/>
      <path d="m87.93,150.59c.78.52,1.41,1.01,2.16,1.64,1.35,1.17,3.06,2.81,3.69,3.75.62.96,3.22,5.81,7.79,5.55l-2.99.85c-4.52.23-1.03-.94-.91-1.25.42-1.08-1.65-3.75-.99-4.78.41-.62-.67-3.7.22-4.87.81-1.02,2.93-3.61,3.36-4.06.57-.6,3.76-3.67,4.09-4,.85-.87,2.38-2.94,3.29-4.44.93-1.55,2.05-3.78,2.67-5.28.6-1.49,1.86-4.42,2.6-5.71.87-1.49,2.2-3.35,3-4.25.79-.89,2.83-2.7,3.82-3.38,1.03-.7,3.17-1.68,4.19-1.86.6-.11,1.63-.16,2.23-.13.56.04,1.72.32,2.22.51,1.09.42,3.18,1.87,4.13,2.86.99,1.05,2.5,3.31,3.09,4.62.51,1.15,1.34,3.57,1.63,4.73.33,1.37.83,4.42.94,5.6.15,1.77.2,4.83.14,6.09-.1,1.82-.44,4.5-.63,5.53-.15.78-.81,3.52-1.27,5.12-.39,1.26-1.25,3.72-1.7,4.91-.47,1.16-1.56,3.7-2.18,5.03-.63,1.27-1.92,3.68-2.58,4.83-1.59,2.6-4.64,6.69-6.24,8.43-.98,1.03-3.1,3.22-4.21,4.3-2.2,2.06-8.08,6.86-9.13,7.62-1.03.71-3.39,2.26-4.58,2.97-1.17.68-3.68,1.95-4.83,2.44-1.4.59-3.99,1.38-5.11,1.55" fill="url(#morph-linear-grad-7)" stroke-width="0"/>
      <path d="m73.76,129.77c.94-.01,1.68,0,2.12.09.52.11,1.35.43,1.76.7.4.27,1.16,1.03,1.47,1.47.63.89,1.58,3.05,1.96,4.31.8,2.67,2.47,10.94,2.56,11.19.19.49.79.94,1.91,1.59.99.58,1.74,1.03,2.39,1.47" fill="url(#morph-linear-grad-8)" stroke-width="0"/>
      <path d="m91.93,157.9c.03-.33.29-1.16.51-1.67.26-.59.97-1.84,1.39-2.44.44-.61,1.54-1.8,1.94-2.14,1.03-.86,2.75-1.74,3.84-2.16" fill="none" stroke="#2a4367" stroke-linecap="round" stroke-linejoin="round" stroke-width="3.39"/>
    </g>
    <g id="Layer_11" data-name="Layer 11">
      <path d="m130.26,127.73c-.24.06-1.36.47-1.77.66-1.16.54-3.94,2.37-5.03,3.24-1.3,1.04-3.47,3.11-4.33,4.09-.93,1.06-2.52,3.21-3.11,4.16-.72,1.16-1.78,3.37-2.21,4.56-.6,1.67-1.06,3.53-1.49,5.74-.34,1.92-.58,4.02-.71,6.03-.13,2.58.11,8.61.25,11.73.12,2.69.31,9.01.26,11.24-.09,2.52-.65,8.99-.97,11.79-.36,2.81-1.11,7.84-1.81,11.35-.66,2.97-2.05,8.49-2.85,11.23-.59,1.9-1.23,4.24-1.33,5.55-.04.65.06,1.72.3,2.48.23.72.8,1.8,1.06,2.19.71,1.06,2.61,2.96,3.75,3.84,1.02.78,3.23,2.16,4.57,2.88,1.55.79,3.59,1.7,4.88,2.24,1.34.52,3.76,1.38,5.56,1.93,1.45.41,4.79,1.23,5.89,1.46,1.51.29,4.51.75,6.01.93,1.09.11,4.37.34,5.76.36,1.73,0,4.49-.11,5.17-.18,1.46-.15,4.18-.72,5.26-1.11.73-.26,2.15-.93,2.76-1.32.68-.45,1.67-1.28,2.22-1.86.91-.99,2.23-3.38,2.66-4.54.35-.96,1.07-3.72,1.31-5.26.37-2.77,1.09-8.47,1.45-11.4.34-2.35,1.66-9.32,2.11-11.07.62-2.23,1.28-4.31,1.82-5.66.53-1.33,1.68-3.65,2.3-4.62.5-.77,2.14-2.89,3.25-3.98,2.28-2.23,7.5-7.42,8.48-8.55.79-.94,2.57-3.2,3.48-4.36.77-1.01,1.91-2.75,2.82-4.25.54-.91,1.77-3.31,2.38-4.75.49-1.16,1.3-3.65,1.61-4.99.26-1.16.58-3.7.61-5.05.02-1.15-.19-3.67-.45-5.01-.23-1.17-.97-3.6-1.52-4.89-.48-1.09-1.81-3.43-2.65-4.59-.75-1.02-2.65-3.08-3.86-4.12-1.07-.92-3.46-2.56-4.76-3.3-1.16-.65-4.15-2.08-5-2.44-1.89-.76-3.61-1.38-5.62-2.01-2.61-.78-8.17-1.95-11.68-2.52-3.36-.45-8.31-.86-10.71-.88-2.05.01-4.75.17-5.76.27-1.85.2-4.28.61-5.46.94-1.64.45-3.87,1.28-5.64,2.11-.65.32-2.09,1.03-2.76,1.4-.8.44-1.12.67-1.2.75" fill="url(#morph-linear-grad-9)" stroke-width="0"/>
    </g>
    <g id="Layer_6" data-name="Layer 6">
      <path d="m170.43,98.12c.05.99.18,2.47.49,4.26.45,2.56.77,2.8.79,4.07.01,1.04-.43,1.46-1.96,5.83-.81,2.32-1.52,3.91-2.22,5.11-1.04,1.79-1.8,3.1-3.33,4.17-.94.66-2.23,1.02-4.82,1.73-1.65.45-3.42.93-5.88,1.28-2.2.31-3.81.35-5.35.39-2.94.07-3.85-.13-4.43-.3-.45-.13-1.72-.53-3.1-1.48-.63-.44-1.33-1.15-2.69-2.57-1.14-1.18-1.57-1.67-2.84-3.02-.8-.85-1.47-1.53-1.91-1.98-.94.82-1.88,1.64-2.82,2.46-.21.21-.42.43-.63.64.03.39.04,1.02-.13,1.75-.22,1-.57,1.18-.74,2.19-.09.53-.11,1.58-.04,2.08.07.49.36,1.35.58,1.74.2.35.83,1.05,1.1,1.27.78.62,2.46,1.32,4.6,2.06,1.99.69,2.85,1.03,4.81,1.96,1.49.74,4.91,2.4,5.89,2.77,1.16.44,3.23,1.04,4.84,1.34,1.33.23,4.26.35,5.82.24,1.27-.1,3.97-.53,5.21-.81,1.18-.28,2.93-.75,4.77-1.37,2.84-1.01,8.66-3.23,11.49-4.14,2.1-.63,9.25-2.42,11.59-3.25,2-.74,3.47-1.4,4.82-2.21,1.12-.68,3.05-2.45,3.67-3.39.35-.55.77-1.46.94-2.06.15-.53.26-1.7.24-2.21-.03-.5-.25-1.7-.45-2.25-.4-1.12-1.7-3.16-2.65-4.11-.87-.86-3.02-2.4-4.13-2.98-1.37-.53-1.08-2.45-3.13-3.93-2.9-1.14-6.24-2.26-9.36-3.16-3.01-.71-6.02-1.41-9.03-2.12Z" fill="url(#morph-linear-grad-10)" stroke-width="0"/>
    </g>
    <g id="Layer_15" data-name="Layer 15">
      <path d="m46.14,35.33c1.12,2.64,2.24,5.27,3.37,7.91.57,1.34,1.14,2.67,1.71,4.01.42.99.9,1.97,1.21,3.01.21.73-.04.66-.72.59-.55-.06-1.09-.19-1.64-.17-.9.03-1.79.17-2.65.41-2.18.62-4.19,1.94-5.51,3.79-1.22-2.8-2.44-5.6-3.66-8.4-.61-1.4-1.22-2.8-1.83-4.2-.31-.72-.62-1.43-.94-2.15-.26-.59-.63-1.23-.68-1.89-.05-.79.42-1.51.96-2.09,2.32-2.48,6.81-3.53,9.85-1.73.41.25.42.44.54.9" fill="#bebb98" stroke-width="0"/>
    </g>
    <g id="Layer_3" data-name="Layer 3">
      <path d="m113.84,85.37s.06-.33.17-.55c.3-.56,2.15-2.15,3.47-3.03,1.09-.72,4.24-2.28,4.91-2.55.8-.32,3.62-1.13,5.04-1.26,1.47-.12,4.34-.35,5.48-.47,1.65-.17,2.81-.38,4.9-.85,2.82-.68,8.71-2.1,10.75-2.35,1.5-.18,4.39-.32,5.81-.26,1.22.05,4.82.53,5.58.73,1.14.31,3.25,1.06,4.17,1.51,1.09.52,2.82,1.7,3.63,2.82,1.46,2.02,2.62,3.78,3.23,4.98.55,1.09,2.33,6.54,2.17,6.06l2.52-.58c-.14-.11-.12-1.64-.38-3.01-.16-.86-.57-2.46-.67-2.89-.16-.73-1.45-4.07-1.94-5.07-.62-1.25-2.2-3.84-2.91-4.83-1.36-1.88-4.77-5.69-6.66-7.55-1.04-.99-3.2-2.95-4.31-3.91-1.51-1.26-3.48-2.76-4.53-3.33-1.5-.81-3.78-1.6-5.08-1.75-1.87-.22-4.35-.16-5.84.07-1.47.23-4.08.93-5.68,1.45-1.76.6-4.22,1.36-5.4,1.59-1.34.26-3.31.47-5.56.6-1.51.08-5.16.3-5.89.38-1.44.17-4.4.97-5.11,1.24-1.14.45-3.2,1.67-4.07,2.45-.56.5-1.54,1.69-1.95,2.35-.63,1.02-1.62,3.68-1.84,5.1-.22,1.49-.02,3.84.3,5.45.15.73.6,2.13.91,2.8.25.53.98,1.74,1.47,2.28.42.48,1.29,1.16,1.74,1.41.52.27,1.1.3,1.57.25.01,0,.04,0,.03,0" fill="#7e451d" stroke-width="0"/>
    </g>
    <path d="m50.58,43.28c7.88,5.79,15.76,11.57,23.64,17.35,1.06.78,2.13,1.56,2.98,2.56.99,1.16,1.64,2.56,2.28,3.95,2.4,5.18,4.79,10.36,7.19,15.54,1.04,2.24,2.15,4.44,3.19,6.68.52,1.12,1.02,2.25,1.49,3.39.35.87,1.5,2.85,1.34,3.78-.21,1.24-2.16.7-3.41.62-1.14-.08-2.3-.14-3.43-.3-2.78-.39-5.58-.69-8.39-.7-6.08-.02-12.57,1.15-15.94,6.71-.56.93-.96,2-1.6,2.88-.93,1.3-1.14,1.32-1.94-.08-1.37-2.39-2.41-5.05-3.6-7.54-2.4-5.03-4.8-10.05-7.21-15.07-4.82-10.04-9.65-20.08-14.5-30.11-.19-.4-.39-.8-.58-1.2-.13-.28-.27-.56-.27-.87,0-.37.21-.71.42-1.02,3.93-5.76,11.04-7.99,17.7-6.75.36.07.49.1.6.15" fill="url(#morph-linear-grad-11)" stroke-width="0"/>
    <g id="Layer_14" data-name="Layer 14">
      <path d="m64.31,101.45c-.02.07-.04.12-.04.15,0,.03,0,.07.01.12" fill="none" stroke="#4c4e3f" stroke-linecap="round" stroke-linejoin="round" stroke-width="3.39"/>
      <path d="m81.07,137.98l-.02-.11" fill="none" stroke="#4c4e3f" stroke-linecap="round" stroke-linejoin="round" stroke-width="3.39"/>
      <path d="m82.53,137.7l.11-.04" fill="none" stroke="#4c4e3f" stroke-linecap="round" stroke-linejoin="round" stroke-width="3.39"/>
      <path d="m115.36,131.71l-.12.07" fill="none" stroke="#4c4e3f" stroke-linecap="round" stroke-linejoin="round" stroke-width="3.39"/>
      <path d="m80.99,137.29L44.73,61.05s-.28-.82-.18-1.24c.13-.5.76-1.7.96-2.01.32-.47,1.29-1.42,1.72-1.71.49-.32,1.69-.76,2.35-.91.55-.12,1.86-.3,2.38-.32.42,0,1.54.06,2.16.13l.38.09,28.9,15.24-.1-.14,31.93,61.61.14-.1-19.29-1.94-1.51.61h-.01s-11.93,7.3-11.93,7.3l-1.53.38-16.83-36.32" fill="#4c4e3f" stroke-width="0"/>
    </g>
    <g id="Layer_12" data-name="Layer 12">
      <path d="m113.81,131.62l-18.09-1.87-2.09-3.74L60.55,58.65l.05-1.04,22.81,12.7,1.84,3.6,30.84,57.71h-2.3l-.18-.21" fill="#72817e" stroke-width="0"/>
    </g>
    <g id="Layer_16" data-name="Layer 16">
      <path d="m73.84,147.43c-.13.16-.31.43-.41.79-.2.7.08,1.32.11,1.61.11,1.07,1.24,3.56,1.79,4.78.84,1.91,1.88,4.03,2.69,5.45.21.35.48.7.81,1.03.21.2.72.32,1.14.32.09,0,2.38-.35,3.04-.41.41-.03,1.18,0,1.45.07.23.06,1.27.89,1.68,1.28.37.35,1.06,1.31,1.32,1.68.02.03.04.05.06.07l-.87-.76,14.44,30.01v.62s31.73,12.39,31.73,12.39l.21-.08,19.93-19.71.06-.13-28.18-52.11-.99-1.93c-9.43-1.01-18.32-1.63-27.74-2.64-3.54.78-10.24,3.87-16.4,9.91-2.76,2.7-4.62,5.49-5.86,7.77Z" fill="url(#morph-linear-grad-12)" stroke-width="0"/>
    </g>
    <g id="Layer_17" data-name="Layer 17">
      <path d="m76.63,160.46c-.12.06-.2.12-.24.17-.07.08-.55.79-.63.89-.05.06-.14.16-.28.29" fill="none" stroke="#4c4e3f" stroke-linecap="round" stroke-linejoin="round" stroke-width="3.39"/>
      <path d="m75.49,161.8l-7.48,6.66" fill="none" stroke="#4c4e3f" stroke-linecap="round" stroke-linejoin="round" stroke-width="3.39"/>
      <path d="m68.01,168.43s0,.1,0,.14c0,.11.02.21.02.32,0,.05,0,.11,0,.18" fill="none" stroke="#4c4e3f" stroke-linecap="round" stroke-linejoin="round" stroke-width="3.39"/>
      <path d="m68.02,169.07l7.15,14.25" fill="none" stroke="#4c4e3f" stroke-linecap="round" stroke-linejoin="round" stroke-width="3.39"/>
      <path d="m75.15,183.33l.05-.11" fill="none" stroke="#4c4e3f" stroke-linecap="round" stroke-linejoin="round" stroke-width="3.39"/>
      <path d="m75.2,183.21l8.01-6.17" fill="none" stroke="#4c4e3f" stroke-linecap="round" stroke-linejoin="round" stroke-width="3.39"/>
      <path d="m83.17,177.06l-6.67-13.68" fill="none" stroke="#4c4e3f" stroke-linecap="round" stroke-linejoin="round" stroke-width="3.39"/>
      <path d="m69.93,167.16c0,.07.54,1.43,2.69,6.15.7,1.53,1.97,4.31,2.54,5.57.4.85.54,1.11.82,1.63" fill="none" stroke="#4c4e3f" stroke-linecap="round" stroke-linejoin="round" stroke-width="3.39"/>
      <path d="m72.02,167.63c.69,1.2,1.4,2.76,2.28,4.87.66,1.65,2.23,5.55,2.31,5.72.38.89.6,1.23.73,1.38.02-.05.02-.09.02-.14-.01-.09-.37-1.28-.44-1.53" fill="none" stroke="#4c4e3f" stroke-linecap="round" stroke-linejoin="round" stroke-width="3.39"/>
      <path d="m72.55,166.21c.26.54.37.77.53,1.04,1.02,1.78,1.84,3.44,2.63,5.37.61,1.57,2.34,6.26,2.52,6.61.11.22.21.33.29.38,0-.12-.06-.35-.21-.91-.06-.21-.11-.42-.17-.64" fill="none" stroke="#4c4e3f" stroke-linecap="round" stroke-linejoin="round" stroke-width="3.39"/>
      <path d="m74.24,164.94c.77,1.47,1.52,3.01,2.19,4.84.55,1.54,1.67,4.73,2.24,6.37.63,1.78.84,2.11.93,2.21" fill="none" stroke="#4c4e3f" stroke-linecap="round" stroke-linejoin="round" stroke-width="3.39"/>
      <path d="m77.92,161.43s0,.05.02.09c.02.04,4.13,9.11,4.63,10.11.21.42,1.05,1.99,1.23,2.4.27.62.55,1.72.71,2.21.03.1.08.25.15.46,3.56-.74,7.12-1.48,10.68-2.21-2.9-5.24-5.81-10.47-8.71-15.71" fill="none" stroke="#7c8277" stroke-linecap="round" stroke-linejoin="round" stroke-width="3.39"/>
      <path d="m76.73,159.63c.52.76,2.36,4.2,2.81,5.13.6,1.28,3.89,10.39,4.02,10.7.28.69.55,1.2.55,1.2" fill="none" stroke="#7c8277" stroke-linecap="round" stroke-linejoin="round" stroke-width="3.39"/>
    </g>
    <g id="Layer_21" data-name="Layer 21">
      <path d="m145.21,96.28c.07.02.14.03.22.05.86.18,1.73.28,2.6.29,1.99.04,3.99-.32,5.81-1.05.93-.37,1.82-.84,2.64-1.4s1.5-1.35,2.37-1.93c0-1.82-1.02-4.06-1.87-5.67-1.38-2.59-4.05-4.86-7.17-5.36-3.77-.61-6.12,2.22-6.51,5.44-.34,2.77,0,5.84.88,8.5.24.71.35.94,1.04,1.12Z" fill="#fff" stroke-width="0"/>
      <path d="m129.58,98.82c-.09-.69-.47-1.49-.6-1.89-.12-.35-.05-.16-.35-1.06-.47-1.4-.8-2.22-.89-2.44,0,0-.13-.32-.24-.59-.31-.74-1.44-3.26-3.72-5.48-.41-.4-.64-.49-.91-.57-1.4-.4-1.93,1.98-1.99,2.88-.14,1.91.58,4.2,1.38,5.93.61,1.32,1.53,2.55,2.79,3.36,1.03.66,2.3,1.01,3.54,1.06.18,0,.37,0,.53-.07.44-.2.53-.64.47-1.14Z" fill="#fff" stroke-width="0"/>
    </g>
    <ellipse cx="80.34" cy="78.54" rx="4.61" ry="5.84" transform="translate(-27.72 47.77) rotate(-28.46)" fill="#bebb98" stroke-width="0"/>
    <ellipse cx="79.65" cy="78.91" rx="4.61" ry="5.84" transform="translate(-27.98 47.49) rotate(-28.46)" fill="#4c4e3f" stroke-width="0"/>
    <ellipse cx="87.28" cy="92.17" rx="4.61" ry="5.84" transform="translate(-33.37 52.73) rotate(-28.46)" fill="#bebb98" stroke-width="0"/>
    <ellipse cx="86.6" cy="92.54" rx="4.61" ry="5.84" transform="translate(-33.63 52.45) rotate(-28.46)" fill="#4c4e3f" stroke-width="0"/>
    <ellipse cx="94.02" cy="105.42" rx="4.61" ry="5.84" transform="translate(-38.87 57.54) rotate(-28.46)" fill="#bebb98" stroke-width="0"/>
    <ellipse cx="93.34" cy="105.79" rx="4.61" ry="5.84" transform="translate(-39.13 57.26) rotate(-28.46)" fill="#4c4e3f" stroke-width="0"/>
    <ellipse cx="101.1" cy="119.29" rx="4.61" ry="5.84" transform="translate(-44.63 62.59) rotate(-28.46)" fill="#bebb98" stroke-width="0"/>
    <ellipse cx="100.42" cy="119.66" rx="4.61" ry="5.84" transform="translate(-44.89 62.31) rotate(-28.46)" fill="#4c4e3f" stroke-width="0"/>
    <g id="Layer_7" data-name="Layer 7">
      <path d="m161.72,161.17c.51-.88,1.81-4.13,2.31-5.73.86-2.91,2.65-10.87,3.28-13.35,1.1-4.03,2.84-9.6,3.85-12.31.57-1.47,1.9-4.4,2.68-5.77.68-1.19,2.31-3.39,3.29-4.42.81-.84,3.13-2.71,4.45-3.43,1.38-.74,4.2-1.53,5.65-1.64,1.43-.09,4.38.3,5.79.8,1.3.47,3.62,1.73,4.65,2.48,1.04.76,2.99,2.62,3.93,3.7.92,1.07,2.65,3.49,3.45,4.8.79,1.31,2.23,4.11,2.86,5.57.63,1.47,1.67,4.49,2.09,6.05.41,1.57,1.03,4.78,1.22,6.4.19,1.61.32,4.84.29,6.45-.05,1.57-.3,4.61-.51,6.05-.22,1.43-1.01,4.76-1.3,5.66-.29.91-1.96,5.27-2.6,6.85-.88,2.09-4.41,9.42-5.96,12.61-1.02,2.18-1.95,4.61-2.44,6.22-.5,1.67-1.11,5.01-1.27,6.71-.13,1.48-.3,4.61-.51,6.16-.17,1.14-.38,2.24-.58,2.87-.24.73-.73,2.1-1.16,2.89-.81,1.5-2.55,3.88-3.96,5.35-1.29,1.35-6.7,5.82-9.24,7.91-2.56,2.14-6.67,5.52-7.42,5.89-1.12.55-3.44,1.05-4.73.98-.57-.03-1.86-.29-2.42-.49-.71-.25-1.95-.92-2.55-1.38-1.32-1.01-2.96-2.84-3.8-4.19-.58-.94-2.12-4.08-2.66-5.52-.54-1.46-1.55-4.87-1.86-6.16-.23-.99-.88-4.35-1.2-6.64-.2-1.69-.44-5.46-.45-6.86,0-2.4.11-4.84.28-6.85.12-1.32.71-5.24.96-6.45.21-1,1.3-5.01,1.76-6.65.81-2.83,1.08-3.92,1.64-6.58.6-3,1.04-4.91,1.76-6.44.24-.5-.8-.05-.14-.91.27-.36.46-.51.57-.63" fill="url(#morph-linear-grad-13)" stroke-width="0"/>
    </g>
    <g id="Layer_9" data-name="Layer 9">
      <path d="m80.33,167.11c.15-.15.26-.27.28-.48.02-.21.11-.41.18-.6.17-.46.27-.94.46-1.39.28-.65.8-1.13,1.34-1.57.6-.5,1.14-.99,1.64-1.59.51-.62,1.38-.78,2.07-1.12.77-.38,1.51-.82,2.27-1.23,2.68-1.44,5.54-2.54,8.42-3.51.1-.03.21-.07.31-.07.31,0,.56.25.77.48-.18-.21-.3-.66-.43-.91-.2-.39-.41-.77-.62-1.16-.42-.77-.85-1.52-1.28-2.28-.77-1.36-3.04-4.42-3.37-4.75-.27-.27-.88-.32-1.65-.26-2.42.15-4.08.3-5.06.54-.7.18-1.73.53-2.11.77-.4.26-.78.93-.87,1.41-.16.94.07,1.91.91,2.43.63.39,1.39.49,2.12.58.8.1,1.6.2,2.4.3.82.1,1.68.22,2.34.73.24.18,1.92,2.62,1.67,2.78-.61.39-1.28.55-1.88.94-.46.17-1.1.61-1.96.7-1.61.17-2.54-.22-4.96-.83-4.29-1.08-5.24-.81-5.85-.45-.8.47-1.39,1.3-1.45,2.24-.05.75.28,1.53.91,1.93.14.09.29.16.46.17.15,0,.3-.03.44-.08.51-.15,1.02-.31,1.54-.46-1.18.35-2.37.71-3.55,1.06-.52.16-1.04.31-1.54.53-.7.3-.97.9-.92,1.65.11,1.7,1.15,2.7,2.75,3.13,1.69.45,1.55.48,3.29.48" fill="url(#morph-linear-grad-14)" stroke-width="0"/>
      <path d="m65.86,100.25c.06-.24.19-.7.25-.92.34-1.23,1.09-4.29,1.39-5.16.61-1.74,2.51-2.68,4.16-3.18,3.16-.95,6.43-1.28,9.62-2.09,1.47-.37,2.77-1.8,2.13-3.39-.43-1.08-1.48-1.34-2.54-1.29-5.73.28-12.53,1.8-16.7,6.01-1.28,1.3-2.6,3.13-3.07,4.18-.23.52-.97,2.64-1.01,2.77-.02.08-.05.23-.09.43" fill="url(#morph-linear-grad-15)" stroke-width="0"/>
      <path d="m55.5,95.89c.19-.61.65-2,.92-2.78,1.31-3.59,2.4-7.88,5.85-10,1.31-.81,2.77-1.34,4.21-1.86,2.52-.9,5.08-1.78,7.73-2.14.74-.1,1.5-.16,2.24-.05s1.47.42,1.98.96c.34.36.59.85.52,1.34-.1.69-.78,1.14-1.42,1.43-2,.91-4.25,1.29-6.38,1.75-1.23.27-3.18.27-4.14,1.19-1.36,1.31-2.34,3.19-3.26,4.82-1.31,2.33-2.31,4.79-3.38,7.23" fill="url(#morph-linear-grad-16)" stroke-width="0"/>
      <path d="m50.86,93.14c1.06-4.23,1.58-8.6,3.13-12.7.54-1.42,1.43-2.41,2.78-3.08,1.44-.72,3.01-1.13,4.51-1.72,1.99-.79,3.87-1.9,5.97-2.3.76-.15,1.57-.19,2.3.08,1,.38,1.64,1.39,1.26,2.44-.49,1.38-1.87,2.29-3.03,3.05-1.57,1.02-3.22,1.89-4.84,2.84-.88.52-1.81.46-2.46,1.27s-1.09,2.31-1.6,3.24c-1.36,2.48-1.23,6.02-1.02,8.77.03.32.06.66-.06.96-.6,1.66-2.7-.48-3.15-1.05" fill="url(#morph-linear-grad-17)" stroke-width="0"/>
      <path d="m47.1,91.31c-.44-1.76-.8-3.52-1.31-5.26-.53-1.85-1.09-3.71-1.41-5.61-.11-.67-.24-1.41.08-2.04.28-.54.75-1.06,1.2-1.47,1.42-1.27,2.97-2.42,4.46-3.62,3.14-2.52,6.02-5.36,10.24-5.75,1.09-.1,2.65.26,3.05,1.43.25.72-.06,1.4-.47,1.99-1.45,2.09-3.28,3.04-5.53,4.07-1.54.7-2.96,1.69-4.23,2.81-1.39,1.22-2.58,2.75-2.2,4.71.26,1.31.9,2.5,1.21,3.79.97,3.99.98,5.47,1.08,7.81" fill="url(#morph-linear-grad-18)" stroke-width="0"/>
    </g>
    <path d="m51.67,131.8c-.1-.18-2.46-2.99-3.13-4.21-.6-1.1-1.17-3.52-1.31-4.96-.13-1.5-.08-4,.08-5.45.09-.82.58-3.98.78-5.31.23-1.6.4-4.17.31-5.46-.21-2.68-1.71-9.2-1.67-10.62v-1.48c0-.69-.08-1.4.1-2.08.08-.31.21-.64.49-.82.5-.32.83.2,1.32.32.38.09.78.03,1.18,0,1.52-.08,2.98.48,4.25,1.27,1.4.87,2.46,2.18,4.08,2.68,1.52.47,2.92,1.29,4.12,2.32.48.42,1.12.6,1.73.79.8.26,1.56.63,1.98,1.4.3.55.34,1.2.62,1.76.34.67.98,1.11,1.41,1.71.45.64.71,1.46.91,2.21.47,1.77.52,3.62.95,5.4.56,2.34,1.25,4.84,2.22,7.03.99,2.24,2.39,4.15,2.84,6.62.45,2.44-.07,5.2-1.94,6.83" fill="url(#morph-linear-grad-19)" stroke-width="0"/>
    <ellipse cx="151.01" cy="88.09" rx="5.43" ry="5.95" fill="#6081c1" stroke-width="0"/>
    <ellipse cx="151.01" cy="88.09" rx="3.38" ry="3.7" fill="#1c283a" stroke-width="0"/>
    <path d="m128.66,95.86s0,.02,0,.03c-.14.71-1.14,1.09-1.77,1.15-1.88.19-3.83-2.16-4.3-4.4-.52-2.47.69-5.07,1.44-5.06.5,0,.9.66,1.14,1.01.72,1.06,1.36,2.19,1.93,3.34s1.13,2.29,1.51,3.48c.05.15.08.3.05.45Z" fill="#6081c1" stroke-width="0"/>
    <path d="m127.77,94.28c-.11.48-.72.83-1.21.88-1.11.11-2.38-1.3-2.68-2.74-.3-1.47.44-2.93,1.05-3.26.22-.12.51-.14.63.04.69,1.04,1.46,2.6,2.32,4.38.09.18-.05.39-.12.7Z" fill="#1c283a" stroke-width="0"/>
    <ellipse cx="123.8" cy="94.22" rx="1.09" ry="1.11" transform="translate(-14.1 22.2) rotate(-9.7)" fill="#becfe4" stroke-width="0"/>
    <ellipse cx="124.62" cy="89.59" rx=".95" ry=".72" transform="translate(-16.96 30.33) rotate(-13)" fill="#becfe4" stroke-width="0"/>
    <g id="Layer_22" data-name="Layer 22">
      <path d="m137.42,87.53c.02.15.05.28.08.36.13.4.37.81.79.95.38.13,3.06-.4,3.43-.54,1.68-.64,3-1.82,4.39-2.92,2.84-2.25,5.9-4.24,8.56-6.71,1.83-1.7,1.68-3.37,4.19-3.85-.29.06-.6-.08-.9-.06-.36.01-.73.04-1.09.09-.7.08-1.38.22-2.06.41-1.2.34-2.32.86-3.37,1.51-2.06,1.28-3.79,2.97-5.48,4.65-.85.85-1.7,1.71-2.59,2.52-.49.45-1,.89-1.53,1.31-.69.54-2.21,1.62-3.14.95-.17-.12-.29-.3-.49-.36-.87-.26-.91.99-.81,1.7Z" fill="#979937" stroke-width="0"/>
      <path d="m129.77,88.81c-.25.54-.62,1.13-1.23,1.3-1.11.33-2.64-.35-3.63-.81-1.3-.61-2.52-1.36-3.81-2-1.4-.7-2.78-1.44-4.14-2.22-.51-.29-1.02-.59-1.59-.7-.32-.06-1.41.13-1.31-.33.08-.36,1.01-.64,1.31-.7.45-.08.79.06,1.28.11.9.08,1.78.27,2.65.52,2.51.72,5.07,1.85,7.3,3.2.47.29,1.01.64,1.58.51.41-.1.82-.17,1.23-.27.29-.07.62.07.65.4.01.13-.02.26-.07.39-.07.2-.15.41-.24.62Z" fill="#979937" stroke-width="0"/>
    </g>
    <g id="Layer_4-2" data-name="Layer 4">
      <path d="m145.96,53.95c.61-.13,2.19-.28,2.95-.28.72,0,2.21.16,2.92.34.74.19,2.13.69,2.79,1.02.77.37,1.81,1.04,2.47,1.58.57.48,1.61,1.52,2.09,2.12.46.57,1.22,1.86,1.53,2.51.32.68.84,2.19.98,2.79.13.61.28,2.19.28,2.95,0,.72-.16,2.21-.34,2.92-.19.74-.69,2.13-1.02,2.79-.37.77-1.04,1.81-1.58,2.47-.47.57-1.52,1.61-2.12,2.09-.57.46-1.86,1.23-2.51,1.53-.69.32-2.19.84-2.8.98-.61.13-2.19.28-2.95.28-.72,0-2.21-.16-2.92-.34-.74-.19-2.12-.69-2.79-1.02-.77-.37-1.81-1.04-2.47-1.58-.57-.48-1.61-1.52-2.09-2.12-.46-.57-1.22-1.86-1.53-2.51-.32-.69-.84-2.19-.98-2.8-.13-.61-.28-2.19-.28-2.95,0-.72.16-2.21.34-2.92.19-.74.7-2.13,1.02-2.79.37-.77,1.04-1.81,1.58-2.47.47-.57,1.52-1.61,2.12-2.09.57-.46,1.86-1.23,2.51-1.53.69-.32,2.19-.84,2.8-.98Z" fill="#7c705b" stroke-width="0"/>
      <path d="m145.83,55.41c.52-.11,1.87-.24,2.51-.24.62,0,1.88.14,2.49.29.63.16,1.81.59,2.38.87.65.32,1.54.89,2.1,1.35.49.41,1.37,1.3,1.78,1.8.39.49,1.04,1.58,1.3,2.14.27.58.72,1.86.83,2.38.11.52.24,1.87.24,2.51,0,.61-.14,1.88-.29,2.49-.16.63-.59,1.81-.87,2.38-.32.65-.89,1.54-1.35,2.1-.4.49-1.3,1.37-1.8,1.78-.49.39-1.58,1.04-2.14,1.3-.58.27-1.87.72-2.38.83-.52.11-1.87.24-2.51.24-.62,0-1.88-.14-2.49-.29-.63-.16-1.81-.59-2.38-.87-.65-.32-1.54-.89-2.1-1.35-.49-.41-1.37-1.3-1.78-1.8-.39-.49-1.04-1.58-1.3-2.14-.27-.58-.72-1.87-.83-2.38-.11-.52-.24-1.87-.24-2.51,0-.61.14-1.88.29-2.49.16-.63.59-1.81.87-2.38.32-.65.89-1.54,1.35-2.1.4-.49,1.3-1.37,1.8-1.78.49-.39,1.58-1.04,2.14-1.3.58-.27,1.87-.72,2.38-.83Z" fill="url(#morph-linear-grad-20)" stroke-width="0"/>
      <path d="m143.29,57.7c.19-.04.7-.09.94-.09.23,0,.7.05.93.11.24.06.68.22.89.32.24.12.58.33.79.5.18.15.51.48.66.67.15.18.39.59.49.8.1.22.27.7.31.89.04.19.09.7.09.94,0,.23-.05.7-.11.93-.06.23-.22.68-.32.89-.12.24-.33.58-.5.79-.15.18-.48.51-.67.66-.18.15-.59.39-.8.49-.22.1-.7.27-.89.31-.19.04-.7.09-.94.09-.23,0-.7-.05-.93-.11-.23-.06-.68-.22-.89-.32-.24-.12-.58-.33-.78-.5-.18-.15-.51-.48-.66-.67-.15-.18-.39-.59-.49-.8-.1-.22-.27-.7-.31-.89-.04-.19-.09-.7-.09-.94,0-.23.05-.7.11-.93.06-.23.22-.68.32-.89.12-.24.33-.58.5-.79.15-.18.48-.51.67-.66.18-.15.59-.39.8-.49.22-.1.7-.27.89-.31Z" fill="#db9898" stroke-width="0"/>
      <path d="m117.98,64c.67,0,2.24.42,2.83.76.58.34,1.73,1.49,2.07,2.07.33.58.75,2.16.76,2.83,0,.67-.43,2.24-.76,2.83-.34.58-1.49,1.73-2.07,2.07-.58.33-2.16.75-2.83.76-.67,0-2.24-.43-2.83-.76-.58-.34-1.73-1.49-2.07-2.07-.33-.58-.75-2.16-.76-2.83,0-.67.43-2.24.76-2.83.34-.58,1.49-1.73,2.07-2.07.58-.33,2.16-.75,2.83-.76Z" fill="#7c705b" stroke-width="0"/>
      <path d="m116.09,63.59c.56,0,1.89.36,2.38.64.49.29,1.46,1.26,1.75,1.75.28.49.63,1.82.64,2.38,0,.56-.36,1.89-.64,2.38-.29.49-1.26,1.46-1.75,1.74-.49.28-1.82.64-2.38.64-.56,0-1.89-.36-2.38-.64-.49-.29-1.46-1.26-1.74-1.74-.28-.49-.64-1.82-.64-2.38,0-.57.36-1.89.64-2.38.28-.49,1.26-1.46,1.74-1.75.49-.28,1.82-.63,2.38-.64Z" fill="#7c705b" stroke-width="0"/>
      <path d="m116.09,64.25c.49,0,1.63.31,2.05.55.42.25,1.26,1.08,1.5,1.5.24.42.55,1.57.55,2.05,0,.49-.31,1.63-.55,2.05-.25.42-1.08,1.26-1.5,1.5-.42.24-1.57.55-2.05.55-.49,0-1.63-.31-2.05-.55-.42-.25-1.26-1.08-1.5-1.5-.24-.42-.55-1.57-.55-2.05,0-.49.31-1.63.55-2.05.24-.42,1.08-1.26,1.5-1.5.42-.24,1.57-.55,2.05-.55Z" fill="#9e9381" stroke-width="0"/>
    </g>
    <ellipse cx="147.02" cy="90.16" rx="1.69" ry="1.31" fill="#becfe4" stroke-width="0"/>
    <ellipse cx="151.01" cy="85.66" rx="1.47" ry="1.09" transform="translate(-3.11 5.74) rotate(-2.15)" fill="#becfe4" stroke-width="0"/>
    <path d="m142.8,116.84c-.25.03.07,1-.62,1.62-.54.48-1.59.66-2.24.37-.53-.23-.64-.7-.79-.67-.31.07.12,2.09.12,2.09.6,2.8,1.54,4.83,1.82,5.42.79,1.66.73,1.05,1.41,2.49.28.6.39.91.7.98.32.06.83-.14,2.2-1.85,1-1.25,1.71-2.14,2.4-3.6.68-1.44,1.29-2.77.99-4.44-.04-.23-.09-.41-.12-.54-.28.13-.72.29-1.28.37-1.24.17-2.81-.1-3.69-.94-.63-.61-.7-1.31-.91-1.28Z" fill="url(#morph-linear-grad-21)" stroke-width="0"/>
    <path d="m81.79,145.12c-.05.39-.68,5.6,2.77,8.31.54.42,1.38.94,2.6,1.24.56-.29,1.23-.71,1.17-1.13-.07-.51-1.15-.74-1.59-.9-1.25-.44-2.69-2.23-3.44-8.31-.5.26-1.01.53-1.51.79Z" fill="#4c4e3f" stroke-width="0"/>
    <path d="m165.51,77.09c-.65.61,1.3,3,3.38,8.89.79,2.24,1.4,4.39.49,6.49-.28.65-.64,1.14-.9,1.46.67-.14,2.63-.64,3.89-2.42.88-1.24,1-2.5,1.08-3.42.24-2.62-.74-4.65-1.26-5.69-.42-.84-1.14-2.23-2.64-3.48-1.15-.96-3.43-2.38-4.03-1.82Z" fill="url(#morph-linear-grad-22)" stroke-width="0"/>
    <path d="m132.96,104.09c-.03.15-.05.35-.05.6,0,.09,0,.68.2,1.03.19.33.87.72,1.44.74.7.03,1.37.2,1.94.45.54.24,1.5.27,1.83.18.85-.23,2.54-1.38,3.87-2.53.48-.4.6-.53.64-.66h-.04c-.33.16-.85.43-1.45.82-1.26.83-1.51,1.35-2.43,1.63-.76.24-1.44.15-1.67.12-.62-.08-.81-.26-1.89-.49-.7-.15-.74-.1-.98-.2-.47-.2-.98-.67-1.4-1.69Z" fill="#e2a679" stroke-width="0"/>
    <path d="m136.17,112.37c.02-.13.06-.36.22-.57.37-.5,1.73-1.23,2.09-1.19,3.73.35,7.7,1.61,8.12,1.79.19.08.38.31.42.37,0,0,0,0,0-.04,0-.02,0-.05,0-.1-.03-.11-.09-.28-.24-.42-.23-.22-.53-.26-.63-.27-1.26-.14-2.36-.5-3.73-.82-2.65-.61-3.17-.98-4.4-.61-.98.3-1.94,1.05-1.86,1.87Z" fill="#e2a679" stroke-width="0"/>
    <g id="Layer_8" data-name="Layer 8">
      <path d="m115.56,187.53c.21-.71,2.81-4.44,3.14-5.1.3-.6,1.85-3.22,2.57-3.97.39-.39,1.18-.9,1.54-.94.66-.06,2.2.25,2.99.43,2.06.47,4.08.82,5.14.92,1.22.11,3.8-.04,5.65-.42,1.98-.41,8.26-2.54,11.35-3.61,1.55-.53,4.37-1.48,5.63-1.9,1.4-.43,3.35-.91,5.27-1.32,1.38-.27,4.19-.54,5.52-.48,1.16.06,3.46.58,4.71,1.08,1.35.54,3.92,2.13,4.99,3.16,1.11,1.07,2.65,3.34,3.21,4.55.46,1,1.13,3.38,1.33,4.78.16,1.17.21,3.95.1,5.53-.09,1.34-.46,3.81-.8,5.53-.35,1.61-1.82,6.84-2.96,10.25-1.59,4.61-5.04,13.55-6.33,16.45-.59,1.26-2.05,4-2.47,4.7-.84,1.35-2.4,3.52-3.3,4.49-.95,1.02-2.91,2.66-4.09,3.29-1.02.54-3.39,1.22-4.56,1.28-.63.03-1.51-.04-2.44-.17-.82-.12-3.81-1.1-5.07-1.75-.83-.43-3.83-2.18-5.14-3.05-1.82-1.25-8.82-6.63-9.65-7.18-.53-.35-3.15-1.88-4.25-2.44-1.31-.64-3.72-1.59-5.18-1.96-1.48-.35-5.18-1.24-5.87-1.46-1.49-.48-4.16-1.77-5.19-2.61-.6-.5-1.43-1.4-1.86-2.02-.38-.56-1-1.89-1.19-2.5-.4-1.29-.61-4.01-.57-5.17.05-1.32.35-3.97.58-5.07.29-1.37,1.1-3.85,1.57-4.85.57-1.21,1.63-2.99,2.74-4.44,1.12-1.46,3.11-4.88,3.26-5.05l1.36.1" fill="url(#morph-linear-grad-23)" stroke-width="0"/>
      <path d="m119.85,180.46c-.08,0-.17,0-.29-.01,0,0-.31-.02-.61-.04-1.43-.11-3.71-.72-4.86-1.31-.63-.32-1.64-.93-2.31-1.42-.56-.4-1.63-1.46-1.81-1.74-.06-.1-1.41-3.83-2.08-5.24-.36-.74-1.91-3.55-2.78-4.99-.95-1.49-2.66-4.07-3.6-5.47-1.23-1.77-3.11-4.11-3.86-4.69-.41-.32-1.21-.59-1.87-.72-.38-.06-1.13-.02-2.26.12-.21.03-.71.11-1.24.25-1.36.35-2.19.93-3.18,1.49-1.82,1.04-1.72.63-3.22,1.51-.86.51-2.61,1.79-4.29,3.83-.43.53-.8,1.1-.97,1.56-.31.87-.23,3.49-.03,4.72.19,1.11.94,3.88,1.44,5.33.65,1.87,3.06,7.1,4.71,10.3,1.46,2.65,5.14,8.77,6,9.88.84,1.07,2.58,3.02,3.64,4,.91.84,3.05,2.51,3.93,3.06.25.15,2.01,1.18,2.5,1.43.79.4,1.92.79,2.71.92.27.05.8-.07,1.36.21.29.14.5.33.62.47,4.11-7.82,8.22-15.63,12.34-23.45Z" fill="url(#morph-linear-grad-24)" stroke-width="0"/>
    </g>
    <path d="m99.61,134.95c18.38,32.8,22.58,41.05,22.24,41.24-.42.25-8.5-11.98-15.46-26.03-2.85-5.74-5.07-10.91-6.78-15.21Z" fill="#777767" stroke-width="0"/>
    <path d="m51.19,45.06c3.69,6.85,4.54,8.58,4.47,8.62-.09.05-1.71-2.5-3.11-5.44-.57-1.2-1.02-2.28-1.36-3.18Z" fill="#4c4e3f" stroke-width="0"/>
  </g>
</svg>