<?xml version="1.0" encoding="UTF-8"?>
<svg id="Layer_2" data-name="Layer 2" xmlns="http://www.w3.org/2000/svg" width="auto" height="auto" xmlns:xlink="http://www.w3.org/1999/xlink" viewBox="0 0 287.92 224.11">
  <defs>
    <linearGradient id="thonk-linear-grad" x1="133.13" y1="71.18" x2="204.52" y2="71.18" gradientUnits="userSpaceOnUse">
      <stop offset="0" stop-color="#3d697c"/>
      <stop offset=".01" stop-color="#3f6b7d"/>
      <stop offset=".49" stop-color="#90b1ba"/>
      <stop offset=".83" stop-color="#c3dde1"/>
      <stop offset="1" stop-color="#d7eef0"/>
    </linearGradient>
    <linearGradient id="thonk-linear-grad-2" x1="-1316.81" y1="-115.66" x2="-1293.56" y2="-46.36" gradientTransform="translate(-1132.09 -236.44) rotate(-158.7) scale(1 -1)" gradientUnits="userSpaceOnUse">
      <stop offset=".21" stop-color="#eed3b5"/>
      <stop offset=".37" stop-color="#e6cfb5"/>
      <stop offset=".61" stop-color="#d0c6b6"/>
      <stop offset=".91" stop-color="#acb7b8"/>
      <stop offset="1" stop-color="#a0b2b9"/>
    </linearGradient>
    <linearGradient id="thonk-linear-grad-3" x1="-1309.03" y1="-57.36" x2="-1285.4" y2="-19.3" xlink:href="#thonk-linear-grad-2"/>
    <linearGradient id="thonk-linear-grad-4" x1="103.38" y1="172.07" x2="187.28" y2="172.07" gradientTransform="matrix(1,0,0,1,0,0)" xlink:href="#thonk-linear-grad-2"/>
    <linearGradient id="thonk-linear-grad-5" x1="143.98" y1="146.34" x2="143.98" y2="102.77" gradientTransform="matrix(1,0,0,1,0,0)" xlink:href="#thonk-linear-grad-2"/>
    <linearGradient id="thonk-linear-grad-6" x1="142.63" y1="131.83" x2="142.63" y2="108.86" gradientUnits="userSpaceOnUse">
      <stop offset="0" stop-color="#f4b27a"/>
      <stop offset=".27" stop-color="#efad76"/>
      <stop offset=".58" stop-color="#e29f6a"/>
      <stop offset=".9" stop-color="#cc8858"/>
      <stop offset="1" stop-color="#c48051"/>
    </linearGradient>
    <linearGradient id="thonk-linear-grad-7" x1="60.77" y1="68.9" x2="107.21" y2="68.9" gradientUnits="userSpaceOnUse">
      <stop offset="0" stop-color="#f4b27a"/>
      <stop offset=".28" stop-color="#efae77"/>
      <stop offset=".61" stop-color="#e1a370"/>
      <stop offset=".96" stop-color="#ca9265"/>
      <stop offset="1" stop-color="#c79064"/>
    </linearGradient>
    <linearGradient id="thonk-linear-grad-8" x1="95.45" y1="81.65" x2="161.41" y2="81.65" xlink:href="#thonk-linear-grad-7"/>
    <linearGradient id="thonk-linear-grad-9" x1="165.32" y1="71.51" x2="257.2" y2="71.51" xlink:href="#thonk-linear-grad-7"/>
    <linearGradient id="thonk-linear-grad-10" x1="168.54" y1="168.49" x2="240.77" y2="170.33" gradientTransform="translate(-31.65 -67.22) rotate(-7.99)" gradientUnits="userSpaceOnUse">
      <stop offset="0" stop-color="#f4b27a"/>
      <stop offset=".17" stop-color="#e2a471"/>
      <stop offset=".38" stop-color="#d29869"/>
      <stop offset=".63" stop-color="#c99265"/>
      <stop offset="1" stop-color="#c79064"/>
    </linearGradient>
    <linearGradient id="thonk-linear-grad-11" x1="-2145.06" y1="47.57" x2="-2072.83" y2="49.4" gradientTransform="translate(-888.39 20.57) rotate(-180) scale(.46 -1)" xlink:href="#thonk-linear-grad-10"/>
    <linearGradient id="thonk-linear-grad-12" x1="125.58" y1="58.3" x2="125.58" y2="15.23" xlink:href="#thonk-linear-grad"/>
    <linearGradient id="thonk-linear-grad-13" x1="138.41" y1="74.68" x2="138.41" y2="57.02" gradientUnits="userSpaceOnUse">
      <stop offset="0" stop-color="#87bfe8"/>
      <stop offset=".31" stop-color="#84bce6"/>
      <stop offset=".5" stop-color="#7eb3e0"/>
      <stop offset=".66" stop-color="#72a4d7"/>
      <stop offset=".81" stop-color="#6290ca"/>
      <stop offset=".94" stop-color="#4d75b9"/>
      <stop offset="1" stop-color="#4368b1"/>
    </linearGradient>
    <linearGradient id="thonk-linear-grad-14" x1="103.42" x2="103.42" xlink:href="#thonk-linear-grad-13"/>
    <linearGradient id="thonk-linear-grad-15" x1="162.78" y1="124.02" x2="186.04" y2="193.32" gradientTransform="matrix(1,0,0,1,0,0)" xlink:href="#thonk-linear-grad-2"/>
    <linearGradient id="thonk-linear-grad-16" x1="-528.86" y1="794.27" x2="-506.72" y2="794.27" gradientTransform="translate(-1459.92 30.49) rotate(-110.62) scale(1.36 1.79)" xlink:href="#thonk-linear-grad-7"/>
    <linearGradient id="thonk-linear-grad-17" x1="112.32" y1="214.48" x2="125.24" y2="214.48" gradientTransform="translate(-40.64 -79.12) rotate(-8.11)" xlink:href="#thonk-linear-grad-6"/>
    <linearGradient id="thonk-linear-grad-18" x1="152.79" y1="210.93" x2="161.28" y2="217.75" gradientTransform="translate(-40.64 -79.12) rotate(-8.11)" gradientUnits="userSpaceOnUse">
      <stop offset=".08" stop-color="#f4b27a"/>
      <stop offset=".22" stop-color="#efad76"/>
      <stop offset=".38" stop-color="#e29f6a"/>
      <stop offset=".54" stop-color="#cc8858"/>
      <stop offset=".59" stop-color="#c48051"/>
    </linearGradient>
    <linearGradient id="thonk-linear-grad-19" x1="166.99" y1="183.75" x2="190.63" y2="221.8" gradientTransform="matrix(1,0,0,1,0,0)" xlink:href="#thonk-linear-grad-2"/>
    <linearGradient id="thonk-linear-grad-20" x1="-789.25" y1="25.79" x2="-768.46" y2="25.79" gradientTransform="translate(-442.39 1162.3) rotate(123.6) scale(1.48 1.46)" xlink:href="#thonk-linear-grad-7"/>
    <linearGradient id="thonk-linear-grad-21" x1="106.28" y1="128.61" x2="155.44" y2="149.33" gradientUnits="userSpaceOnUse">
      <stop offset="0" stop-color="#353535"/>
      <stop offset="0" stop-color="#353535"/>
      <stop offset="1" stop-color="#393839"/>
    </linearGradient>
  </defs>
  <g id="Layer_4" data-name="Layer 4">
    <path d="m85.1,67.73c-23.58-5.4-49.58,1.17-67.95,17.05C4.82,95.44-2.17,111.72.61,128.01c1.78,10.42,7.32,20.16,15.37,27.01,5.57,4.74,32.4,17.15,18.39,25.31-9.42,5.48-19.48,11.58-17.12,24.3,1.43,7.7,7.74,13.87,15.02,16.76,11.16,4.44,25.78,3.39,36.21-2.58,5.23-2.99,9.7-7.12,14.55-10.69,16.44-12.08,39.27-9.94,57.73-4.12,12.11,3.82,23.89,9.17,36.58,10.81,11.67,1.5,23.13,2.1,34.91.78,22.73-2.54,45.71-10.76,62.83-26.3,6.91-6.27,12.28-14.79,12.78-24.11.7-13.03-6.89-22.03-17.35-28.63-13.85-8.73-40.1-10.48-38.77-32.29,1.14-18.66,19.05-31.08,20.69-50.22,1.82-21.26-14.62-38.51-33.18-46.07-16.82-6.86-44.01-10.33-65.11,1.15-19.43,10.58-30.55,32.42-36.59,52.86-1.47,4.96-3.33,10.79-8.27,12.35-3.82,1.21-7.82-.76-11.48-2.38-4.11-1.82-8.37-3.21-12.7-4.21Z" fill="#8e8e8e" stroke-width="0"/>
  </g>
  <g id="Layer_10" data-name="Layer 10">
    <path d="m155.29,31.46c12.33-8.45,15.64-8.62,18.38-7.78,3.09.95,3.7,2.64,8.7,6.27,6.12,4.44,11.53,6.49,15.1,7.53-1.72,1.22-3.75,2.46-6.07,3.51-2.54,1.16-4.88,1.85-6.89,2.26,3.09,2.27,6.26,4.53,9.52,6.78,3.05,2.1,6.06,4.11,9.03,6.02-1.6,1.34-3.3,2.69-5.09,4.02-2.15,1.59-4.24,3.01-6.24,4.27,1.69,2.27,4.19,5.09,7.55,7.28,1.93,1.25,3.72,2.03,5.25,2.51-1.68,1.97-4.15,4.46-7.55,6.78-3.83,2.61-7.47,4.04-10.11,4.86.03,1.01.23,3.03,1.51,5.08,1.56,2.5,3.8,3.56,4.75,4,3.18,1.46,6.65,1.38,6.65,1.38.8-.02.98-.09,1.26.08,2.04,1.22.76,9.98-4.38,15.11-2.04,2.04-4.21,3.03-6.41,4.03-3.51,1.6-6.52,2.1-9.87,2.65-1.47.24-4.32.66-8.19.8-6.88.25-11.48.41-16.08-2.04-1.23-.66-2.84-1.7-4.91-3.82-17.66-18.16-18.05-41.41-18.05-41.41.01-2.45.23-16.96,7.06-27.86,2.14-3.42,6.46-6.38,15.1-12.3Z" fill="url(#thonk-linear-grad)" stroke-width="0"/>
    <path d="m113.93,189.31c4.86-10.81,2.81-13.5,6.11-22.55,6.3-17.28,19-21.54,16.58-30.79-.8-3.06-3.02-6.02-5.93-7.25-6.49-2.76-14.76,3.74-19.32,7.42-9.27,7.46-27.54,26.36-27.79,55.05-.02,2.23-1.75,6.09.19,9.26,3.09,5.05,12.74,6.18,19.43,2.94,1.22-.59,5.74-2.97,10.74-14.09Z" fill="url(#thonk-linear-grad-2)" stroke-width="0"/>
    <path d="m114.93,199.07c.08.73.78,8.37-4.23,13.27-6.78,6.62-18.2,2.55-19.77,1.99-10.41-3.71-17.83-14.5-17.27-24.11.11-1.82.49-8.38,5.16-10.99,2.04-1.14,4.19-1.12,5.53-.97,2.75-.15,4.72.4,6,.93,2.82,1.15,3.12,2.49,7.65,5.51,2.37,1.58,3.55,2.36,5.39,3.01,2.76.97,3.73.53,5.7,1.72,1.95,1.18,2.99,2.83,3.71,3.97.24.38,1.81,2.65,2.13,5.68Z" fill="url(#thonk-linear-grad-3)" stroke-width="0"/>
    <path d="m120.46,134.61c-2.02,4.51-4.87,11.06-8.03,19.07-8.94,22.66-9.14,28.46-9.04,31.62.13,4.05.49,15.2,8.03,23.09,12.77,13.36,37.05,7.92,49.44,2.51,5.83-2.55,25.17-10.99,26.35-24.85,1.22-14.22-17.99-18.73-21.33-42.16-1.04-7.3-.33-14.96-4.02-16.31-3.76-1.39-6.56,5.84-14.05,6.53-8.64.79-13.08-8.09-20.08-6.27-3.68.95-5.98,4.32-7.28,6.78Z" fill="url(#thonk-linear-grad-4)" stroke-width="0"/>
    <path d="m162.01,130.18c2.4-3.26,5.33-9.52,2.76-12.8-1.07-1.37-2.72-1.73-3.25-1.84-4.51-.94-7.35,3.42-11.69,5.48-10.04,4.77-20.58-6.76-25.72-2.13-2.76,2.48-1.76,7.58-1.63,8.22,1.01,4.85,5.27,7.43,7.4,8.72,8.54,5.17,19.77,3.75,26.98-.88,1.55-1,3.47-2.5,5.14-4.77Z" fill="url(#thonk-linear-grad-5)" stroke-width="0"/>
    <path d="m131.33,126.67c-.81-1.72-.07-2.61.18-6.66.49-8.01-2.25-8.93-.88-12.45,2.16-5.56,9.96-7.51,16.26-9.08,1.73-.43,3.04-.36,3.66-.29.56.06,1.99.2,2.78.73,2.06,1.38.76,6.03.29,10.55-1.02,9.77,3.05,12,.59,16.26-2.69,4.64-9.19,5.26-10.59,5.4-4.09.4-10.46-.57-12.3-4.45Z" fill="url(#thonk-linear-grad-6)" stroke-width="0"/>
    <path d="m96.65,41.8c-.29-3.85,4.28-7.09,7.91-9.67,5.93-4.21,14.41-8.07,29.88-9.08,17-1.11,25.49-1.71,34.86,3.81,16.38,9.65,19.38,28.21,19.63,29.88,1.69,11.6-2.47,20.56-6.44,29.29-2.51,5.51-5.01,9.06-8.2,12.01-2.02,1.87-9.06,8.38-15.23,6.74-4.74-1.26-6.62-6.7-9.08-12.01-6.35-13.69-17.82-29.14-30.46-37.49-11.94-7.89-22.42-7.79-22.85-13.47Z" fill="#896039" stroke-width="0"/>
    <path d="m91.97,59.09c-4.8-1.36-7.2-2.03-10.55-1.76-6.28.52-10.64,3.85-12.01,4.98-7.53,6.24-9.68,16.69-8.2,17.58.54.32,1.33-.77,3.52-2.05,3.9-2.29,7.65-2.48,11.72-2.64,7.34-.29,13.36,1.39,16.7,2.34,7.17,2.05,8.75,3.78,10.84,2.64,3.58-1.96,4.5-10.1,1.17-14.94-2.07-3.01-5.77-4.06-13.18-6.15Z" fill="url(#thonk-linear-grad-7)" stroke-width="0"/>
    <path d="m144.99,44.73c-7.18-3.67-13.5-4.22-19.63-4.69-10.84-.83-17.82.97-19.63,1.46-5.15,1.41-7.79,2.18-9.37,4.69-2.26,3.58.4,6.36.29,16.11-.07,6.55-1.28,6.95-.59,11.42.7,4.49,2.19,5.84,4.39,11.42,2.27,5.77,3.07,10.41,3.81,14.65,2.18,12.62-.48,15.22,2.64,19.04,3.81,4.66,12,5.94,16.99,3.22,3.1-1.69,2.31-3.48,5.86-6.74,5.73-5.26,10.47-3.04,17.87-7.62,5.43-3.35,8.28-7.89,9.37-9.67,4.54-7.39,4.46-14.71,4.39-20.5-.07-6.08-.23-20.28-9.96-28.71-2.27-1.97-4.43-3.07-6.44-4.1Z" fill="url(#thonk-linear-grad-8)" stroke-width="0"/>
    <path d="m165.49,69.92c1.23-5.09,8.79-7.09,15.23-8.79,5.65-1.49,10.59-1.86,25.78-1.76,10.65.07,15.97.1,17.28.29,19.15,2.77,34.12,15.22,33.39,16.7-.22.45-1.81-.32-7.03-1.46-1.68-.37-13.7-2.96-24.02-2.34-3.73.22-4.68.71-17.87,4.39-26.49,7.4-31.31,7.86-35.74,5.27-4.51-2.63-8.04-8.09-7.03-12.3Z" fill="url(#thonk-linear-grad-9)" stroke-width="0"/>
    <path d="m164.47,75.07c.45-3.62,6.07-5.8,10.85-7.66,4.19-1.63,7.95-2.41,19.62-3.98,8.18-1.1,12.27-1.65,13.3-1.66,14.97-.17,27.66,6.75,27.24,7.84-.13.33-1.42-.02-5.54-.25-1.33-.07-10.8-.55-18.67.98-2.84.55-3.53.99-13.3,4.93-19.62,7.92-23.28,8.75-26.93,7.46-3.72-1.32-6.95-4.67-6.58-7.67Z" fill="url(#thonk-linear-grad-10)" stroke-width="0"/>
    <path d="m100.96,67.81c-.44-3.52-3.15-4.9-5.46-6.08-2.02-1.03-3.8-1.28-9.24-1.22-3.82.05-5.73.07-6.2.2-6.87,1.92-12.24,10.53-11.97,11.55.08.31.65-.22,2.52-1.01.6-.26,4.91-2.04,8.61-1.62,1.34.15,1.68.49,6.41,3.04,9.5,5.12,11.23,5.43,12.81,3.65,1.62-1.82,2.88-5.6,2.52-8.51Z" fill="url(#thonk-linear-grad-11)" stroke-width="0"/>
    <path d="m94.38,44.88c.64-1.21,1.64-1.87,2.2-2.2,16.08-9.4,32.29-8.35,32.29-8.35,7.99.52,16.32,1.05,24.17,7.1,6.69,5.16,9.49,11.61,11.42,16.04,3.9,8.96,3.84,16.05,3.73,29-.13,15.26-2.8,17.61-4.28,18.45-2.53,1.44-6.68,1.34-8.35-.66-.42-.5-.91-1.39-.77-5.38.11-3.19.16-4.78.88-7.58,1.51-5.92,1.58-17.16-.66-25.48-1.09-4.04-3.29-12.2-10.33-17.79-9.87-7.84-25.22-7.41-35.59-3.3-6.69,2.65-12.64,7.36-14.65,5.42-.99-.96-1-3.52-.07-5.27Z" fill="#604128" stroke-width="0"/>
    <path d="m116.13,47.15c-4.22-.76-6.45-6.07-8.79-11.64-2.03-4.85-3.27-7.81-3.3-12.08-.04-7.65,3.87-13.29,5.71-15.6-.39,6.13-.02,7.6.44,7.69.77.15,1.41-3.63,4.61-7.91,1.45-1.93,3.8-4.99,7.91-6.59,3.5-1.36,6.82-1.1,9.01-.66-.86.24-3.06.96-4.83,3.08-2.36,2.82-2.24,6.07-2.2,6.81,2.57-1.49,7.15-3.58,12.74-3.08,5.37.48,9.87,3.2,9.67,3.95-.22.8-5.46-1.51-9.89.66-1.8.88-3.71,2.69-6.81,12.08-4.22,12.78-3.64,18.5-8.57,21.75-.73.48-3.05,2.01-5.71,1.54Z" fill="url(#thonk-linear-grad-12)" stroke-width="0"/>
    <path d="m111.19,96.36c-.11-.42,1.69-1.52,3.52-2.07.11-.03.19-.05.24-.07,2.19-.58,4.3-.02,5.27.25,1.98.55,3.28,1.38,4.64,2.26.44.29,1.85,1.19,1.76,1.38-.12.23-2.38-1.08-5.02-1.76-5.61-1.45-10.24.65-10.42,0Z" fill="#c08e56" stroke-width="0"/>
    <path d="m118.55,76.82c.32-.12.91,2.21.94,2.35.32,1.3.37,2.48.36,3.29-.03,1.28-.23,2.18-.45,3.15-.11.49-.43,1.82-1.09,3.32-.35.78-.73,1.66-.87,1.56-.22-.16.55-2.54.89-5.81.48-4.5-.16-7.72.22-7.86Z" fill="#d39e6b" stroke-width="0"/>
    <path d="m127.39,75.22c.3.01.71.03.75.19.12.43-2.31,2.03-4.89,2.07-2.32.03-2.4-.97-4.61-1.13-3.7-.26-5.61,2.4-7.15,1.32-.88-.62-1.13-2.11-1.32-3.2-.03-.18-.17-1.02-.09-2.13.04-.61.14-1.16.26-1.69.94-3.91,2.95-8.02,2.95-8.02.82-1.67,1.95-3.81,3.46-6.23-1.12,2.39-2.58,5.55-4.27,9.38-.75,1.7-1.64,3.78-1.66,6.56,0,.66.02,4.01,1.25,4.36.41.12.78-.14,1.19-.38,1.61-.91,3.15-.98,4.99-1.07,3.4-.16,3.98,1.81,5.93,1,.81-.33,1.71-1.09,3.2-1.04Z" fill="#c08e56" stroke-width="0"/>
    <ellipse cx="137.16" cy="66" rx="10.52" ry="12.8" fill="#c7d0e0" stroke-width="0"/>
    <ellipse cx="137.59" cy="65.65" rx="8.9" ry="11.27" fill="#b5bcc6" stroke-width="0"/>
    <ellipse cx="138.41" cy="65.65" rx="6.92" ry="8.95" fill="url(#thonk-linear-grad-13)" stroke-width="0"/>
    <ellipse cx="135.37" cy="61.4" rx="2.24" ry="2.65" fill="#cdecfc" stroke-width="0"/>
    <ellipse cx="138.04" cy="64.32" rx="1.12" ry="1.32" fill="#cdecfc" stroke-width="0"/>
    <ellipse cx="102.43" cy="66" rx="8.28" ry="12.8" fill="#c7d0e0" stroke-width="0"/>
    <ellipse cx="102.78" cy="65.65" rx="7.01" ry="11.27" fill="#b5bcc6" stroke-width="0"/>
    <ellipse cx="103.42" cy="65.65" rx="5.45" ry="8.95" fill="url(#thonk-linear-grad-14)" stroke-width="0"/>
    <ellipse cx="101.03" cy="61.4" rx="1.76" ry="2.65" fill="#cdecfc" stroke-width="0"/>
    <ellipse cx="103.13" cy="64.32" rx=".88" ry="1.32" fill="#cdecfc" stroke-width="0"/>
    <path d="m109.82,61.52c1.04-.83,3.42-2.48,6.92-2.94,6.11-.82,10.58,2.64,11.27,3.19.27-.26.7-.75.68-1.35-.1-2.21-6.44-4.5-12.08-3.93-3.37.34-7.69,1.82-7.74,3.56-.02.6.48,1.11.95,1.47Z" fill="#c7d0e0" stroke-width="0"/>
    <path d="m126.65,49.71c.14.66.86,1.2,3.48,1.88,3.9,1.02,6.17.84,8.75,1.22,1.71.25,4.2.85,7.15,2.45-1-1.87-2.17-2.9-3.01-3.48-3.26-2.25-5.48-.45-9.79-2.64-2.23-1.13-3.16-2.39-4.61-1.98-1.16.33-2.17,1.59-1.98,2.54Z" fill="#c7d0e0" stroke-width="0"/>
    <path d="m93.78,55.55c.29.19,1.42-2.75,4.61-3.95,1.48-.56,3.11-.63,6.02-.75,2.38-.1,3.49.03,3.76-.56.31-.69-.66-1.95-1.69-2.64-2.33-1.54-5.72-.58-7.72.56-4.08,2.33-5.35,7.1-4.99,7.34Z" fill="#c7d0e0" stroke-width="0"/>
    <path d="m164.03,183.75c-.6-11.84,2.29-13.59,2.5-23.23.41-18.39-9.88-26.97-4.27-34.71,1.86-2.56,5-4.51,8.16-4.6,7.04-.21,12.39,8.85,15.31,13.93,5.93,10.32,16.08,34.57,5.9,61.39-.79,2.08-.58,6.31-3.54,8.56-4.71,3.58-14.12,1.13-19.17-4.31-.92-1-4.27-4.85-4.88-17.02Z" fill="url(#thonk-linear-grad-15)" stroke-width="0"/>
    <path d="m137.27,198.55c-14.78,4.27-35.81,12.72-45.64,10.44-1.58-.37-5.02-1.2-7.42-3.69-1.07-1.12-3.31-3.99-2.21-8.25,1.5-5.8,8.13-10.13,8.89-10.62,1.36-.87,2.48-1.35,2.75-1.47,9.06-4.04,23.58-3.27,35.35-5.02,14.14-2.1,16.81-6.72,23.47-3.89,5.62,2.39,10.59,8.61,9.41,13.18-1.24,4.81-8.5,4.67-24.61,9.32Z" fill="url(#thonk-linear-grad-16)" stroke-width="0"/>
    <path d="m113.87,117.5c-1.07-.8-9.16-6.86-10.96-6.51-.25.05-.49.14-.49.14-.96.38-1.87,1.27-2.07,2.28-.31,1.65,1.35,3.23,2.9,4.61.63.56,1.17,1.05,2.29,1.95,1.28,1.03,2.36,1.83,3.1,2.37,1.74-1.61,3.48-3.22,5.21-4.84Z" fill="url(#thonk-linear-grad-17)" stroke-width="0"/>
    <path d="m145.89,115.1c.77-1.59,1.45-2.67,1.45-2.67,1.11-1.76,1.8-2.4,1.65-3.5-.19-1.43-1.66-2.81-3.13-3.01-2.77-.37-5.6,3.48-6.91,6.08-.14.29-.28.57-.4.86" fill="url(#thonk-linear-grad-18)" stroke-width="0"/>
    <path d="m155.99,193.9c-.34.65-3.77,7.51-.88,13.9,3.91,8.63,16.03,8.99,17.69,9.04,11.05.32,21.88-7.03,24.85-16.19.56-1.73,2.59-7.99-.82-12.11-1.49-1.8-3.49-2.57-4.8-2.92-2.51-1.14-4.55-1.34-5.93-1.32-3.05.05-3.81,1.19-9.13,2.35-2.78.61-4.16.91-6.12.85-2.93-.1-3.67-.87-5.93-.47-2.25.39-3.81,1.55-4.89,2.35-.36.26-2.65,1.82-4.05,4.52Z" fill="url(#thonk-linear-grad-19)" stroke-width="0"/>
    <path d="m159.41,164.45c9.94,5.96,24.58,14.75,27.76,26.62.38,1.42,1.17,4.53.2,8.01-.44,1.56-1.78,5.17-5.65,7.27-5.28,2.86-11.56.91-12.27.68-5.32-1.73-6.17-4.88-19.96-23.29-4.76-6.36-7.47-9.73-8.2-14.9-.17-1.19-1.14-8.04,2.63-9.96,1.22-.62,4.07-1.3,15.5,5.56Z" fill="url(#thonk-linear-grad-20)" stroke-width="0"/>
    <path d="m124.97,142.33c6.91-8.5,21.72-17.68,31.26-7.72,4.87,5.09,6.82,13.15,6.39,20.02-.08,1.3-1.38,17.54-14.81,23.34-6.98,3.02-17.43,3.29-24.09-3.26-6.41-6.31-5.68-15.38-5.52-17.32.6-7.46,4.58-12.36,6.78-15.06Z" fill="#f78f1e" stroke-width="0"/>
    <path d="m138.55,112.87c-2.3,5.36-.57,9.63-4.01,12.5-.33.28-1.02.85-2.07,1.21-1.71.58-3.95.48-8.57-2.02-2.14-1.16-3.71-2.26-6.38-4.23-1.54-1.13-2.79-2.13-3.66-2.84-1.74,1.61-3.48,3.22-5.21,4.84,1.51.96,3.2,2.18,4.93,3.7,1.08.95,2.11,1.96,3.08,3.03.65.71,2.16,1.82,2.21,2.82-1.13.13-2.39-.63-3.4-1.05-2.54-1.05-5.52-.36-7.14,1.96-.72,1.04-.77,2.35-1.28,3.49-.58,1.31-1.73,2.33-2.63,3.42-1.28,1.54-2.32,3.27-3.08,5.13-.82,2-.54,3.96.24,5.95.29.75.66,1.9,1.25,2.49,2.1,3.16,4.65,5.04,5.75,5.8,1.62,1.12,6.28,4.09,13.89,5.68,5.34,1.12,10.44,2.19,16.06-.13,1.57-.64,5.3-2.24,7.91-6.15,2.6-3.91,2.62-7.94,2.64-10.67,0-1.42.03-6.43-2.38-11.67-.79-1.73-2.4-4.67-2.9-8.39-.16-1.2-.19-2.4-.19-2.5-.03-1.54-.06-3.3.52-5.53.31-1.19.8-2.82,1.76-4.61" fill="url(#thonk-linear-grad-21)" stroke-width="0"/>
  </g>
</svg>